                                                                        S      1
,,13HAction Button,13HAction Button,7Hunknown,7Hunknown,32,38,7,99,15,, G      1
1.,2,2HMM,1,0.08,15H20170103.185638,0.01,10000.,7Hunknown,7Hunknown,11, G      2
0,;                                                                     G      3
     186       1                                                00000000D      1
     186             -77       1       0                               0D      2
     514       2                                                00010000D      3
     514                       1       1                               0D      4
     510       3                                                00010000D      5
     510             -77       1       1                               0D      6
     510       4                                                00010000D      7
     510             -77       1       1                               0D      8
     510       5                                                00010000D      9
     510             -77       1       1                               0D     10
     510       6                                                00010000D     11
     510             -77       1       1                               0D     12
     510       7                                                00010000D     13
     510             -77       1       1                               0D     14
     510       8                                                00010000D     15
     510             -77       1       1                               0D     16
     508       9                                                00010000D     17
     508                       2       1                               0D     18
     508      11                                                00010000D     19
     508                       1       1                               0D     20
     508      12                                                00010000D     21
     508                       2       1                               0D     22
     508      14                                                00010000D     23
     508                       2       1                               0D     24
     508      16                                                00010000D     25
     508                       1       1                               0D     26
     508      17                                                00010000D     27
     508                       1       1                               0D     28
     508      18                                                00010000D     29
     508                       1       1                               0D     30
     126      19                                                00010000D     31
     126       0               8       0                               0D     32
     126      27                                                00010000D     33
     126       0               5       0                               0D     34
     126      32                                                00010000D     35
     126       0               6       0                               0D     36
     126      38                                                00010000D     37
     126       0               7       0                               0D     38
     126      45                                                00010000D     39
     126       0               5       0                               0D     40
     126      50                                                00010000D     41
     126       0               5       0                               0D     42
     126      55                                                00010000D     43
     126       0               4       0                               0D     44
     126      59                                                00010000D     45
     126       0               7       0                               0D     46
     126      66                                                00010000D     47
     126       0               8       0                               0D     48
     126      74                                                00010000D     49
     126       0               7       0                               0D     50
     126      81                                                00010000D     51
     126       0               7       0                               0D     52
     126      88                                                00010000D     53
     126       0               4       0                               0D     54
     126      92                                                00010000D     55
     126       0               7       0                               0D     56
     126      99                                                00010000D     57
     126       0               9       0                               0D     58
     128     108                                                00010000D     59
     128       0     -77      22       0                               0D     60
     128     130                                                00010000D     61
     128       0     -77       3       0                               0D     62
     128     133                                                00010000D     63
     128       0     -77      16       0                               0D     64
     128     149                                                00010000D     65
     128       0     -77      17       0                               0D     66
     128     166                                                00010000D     67
     128       0     -77       4       0                               0D     68
     128     170                                                00010000D     69
     128       0     -77       4       0                               0D     70
     502     174                                                00010000D     71
     502                       5       1                               0D     72
     504     179                                                00010001D     73
     504                       4       1                               0D     74
     406     183                                                00000000D     75
     406                       1      15                               0D     76
     314     184                                                00000200D     77
     314                       2       0                               0D     78
     314     186                                                00000200D     79
     314                       2       0                               0D     80
186,3,1,0,0,1,75;                                                      1P      1
514,6,5,1,7,1,9,1,11,1,13,1,15,1;                                      3P      2
510,59,1,1,17;                                                         5P      3
510,61,1,1,19;                                                         7P      4
510,63,1,1,21;                                                         9P      5
510,65,1,1,23;                                                        11P      6
510,67,1,1,25;                                                        13P      7
510,69,2,1,27,29;                                                     15P      8
508,7,0,73,1,1,0,0,73,2,1,0,0,73,3,1,0,0,73,4,1,0,0,73,5,1,0,0,       17P      9
73,2,0,0,0,73,6,1,0;                                                  17P     10
508,2,0,73,1,0,0,0,73,6,0,0;                                          19P     11
508,7,0,73,5,0,0,0,73,4,0,0,0,73,7,1,0,0,73,8,0,0,0,73,9,0,0,0,       21P     12
73,7,0,0,0,73,3,0,0;                                                  21P     13
508,6,0,73,10,0,0,0,73,11,0,0,0,73,12,1,0,0,73,13,0,0,0,73,14,0,      23P     14
0,0,73,12,0,0;                                                        23P     15
508,2,0,73,13,1,0,0,73,14,1,0;                                        25P     16
508,2,0,73,10,1,0,0,73,11,1,0;                                        27P     17
508,2,0,73,8,1,0,0,73,9,1,0;                                          29P     18
126,6,2,0,0,0,0,-3.14159265358979,-3.14159265358979,                  31P     19
-3.14159265358979,-1.5707963267949,-1.5707963267949,0.,0.,            31P     20
1.5707963267949,1.5707963267949,1.5707963267949,1.,                   31P     21
0.707106781186548,1.,0.707106781186548,1.,0.707106781186548,1.,       31P     22
4.75,7.5,-5.01920077747749D-16,4.75,7.5,4.75,                         31P     23
-8.72560844392489D-16,7.5,4.75,-4.75,7.5,4.75,-4.75,7.5,              31P     24
-2.24704176653273D-15,-4.75,7.5,-4.75,2.90853614797497D-16,7.5,       31P     25
-4.75,-3.14159265358979,1.5707963267949,0.,0.,0.;                     31P     26
126,2,2,0,0,0,0,-1.5707963267949,-1.5707963267949,                    33P     27
-1.5707963267949,1.11022302462516D-16,1.11022302462516D-16,           33P     28
1.11022302462516D-16,1.,0.707106781186543,1.,0.,7.5,-4.75,0.,         33P     29
7.5,-5.25,0.,7.,-5.25,-1.5707963267949,1.11022302462516D-16,0.,       33P     30
0.,0.;                                                                33P     31
126,2,2,0,0,0,0,-1.5707963267949,-1.5707963267949,                    35P     32
-1.5707963267949,1.22464679914735D-16,1.22464679914735D-16,           35P     33
1.22464679914735D-16,1.,0.707106781186548,1.,                         35P     34
3.2146978477618D-16,7.,-5.25,-5.25,7.,-5.25,-5.25,7.,                 35P     35
-1.55431223447522D-15,-1.5707963267949,1.22464679914735D-16,0.,       35P     36
0.,0.;                                                                35P     37
126,4,2,0,0,0,0,1.22464679914735D-16,1.22464679914735D-16,            37P     38
1.22464679914735D-16,1.5707963267949,1.5707963267949,                 37P     39
3.14159265358979,3.14159265358979,3.14159265358979,1.,                37P     40
0.707106781186547,1.,0.707106781186547,1.,-5.25,7.,                   37P     41
-1.55431223447522D-15,-5.25,7.,5.25,-9.64409354328541D-16,7.,         37P     42
5.25,5.25,7.,5.25,5.25,7.,-2.68433095370498D-16,                      37P     43
1.22464679914735D-16,3.14159265358979,0.,0.,0.;                       37P     44
126,2,2,0,0,0,0,-3.14159265358979,-3.14159265358979,                  39P     45
-3.14159265358979,-1.5707963267949,-1.5707963267949,                  39P     46
-1.5707963267949,1.,0.707106781186548,1.,5.25,7.,                     39P     47
-1.55431223447522D-15,5.25,7.,-5.25,3.2146978477618D-16,7.,           39P     48
-5.25,-3.14159265358979,-1.5707963267949,0.,0.,0.;                    39P     49
126,2,2,0,0,0,0,1.5707963267949,1.5707963267949,1.5707963267949,      41P     50
3.14159265358979,3.14159265358979,3.14159265358979,1.,                41P     51
0.707106781186548,1.,2.90853614797497D-16,7.5,-4.75,4.75,7.5,         41P     52
-4.75,4.75,7.5,-1.66533453693773D-15,1.5707963267949,                 41P     53
3.14159265358979,0.,0.,0.;                                            41P     54
126,1,1,0,0,1,0,-0.666666666666667,-0.666666666666667,                43P     55
0.476190476190476,0.476190476190476,1.,1.,-5.25,7.,                   43P     56
-1.55431223447522D-15,-5.25,1.,-2.22044604925031D-16,                 43P     57
-0.666666666666667,0.476190476190476,0.,0.,0.;                        43P     58
126,4,2,0,0,0,0,2.60658196488991D-48,2.60658196488991D-48,            45P     59
2.60658196488991D-48,1.5707963267949,1.5707963267949,                 45P     60
3.14159265358979,3.14159265358979,3.14159265358979,1.,                45P     61
0.707106781186548,1.,0.707106781186548,1.,5.25,1.,                    45P     62
-2.22044604925031D-16,5.25,1.,5.25,3.2146978477618D-16,1.,5.25,       45P     63
-5.25,1.,5.25,-5.25,1.,4.20894964627329D-16,                          45P     64
2.60658196488991D-48,3.14159265358979,0.,0.,0.;                       45P     65
126,4,2,0,0,0,0,3.14159265358979,3.14159265358979,                    47P     66
3.14159265358979,4.71238898038469,4.71238898038469,                   47P     67
6.28318530717959,6.28318530717959,6.28318530717959,1.,                47P     68
0.707106781186548,1.,0.707106781186548,1.,-5.25,1.,                   47P     69
4.20894964627329D-16,-5.25,0.999999999999999,-5.25,                   47P     70
-9.64409354328541D-16,0.999999999999999,-5.25,5.25,                   47P     71
0.999999999999999,-5.25,5.25,1.,-1.50792374402975D-15,                47P     72
3.14159265358979,6.28318530717959,0.,0.,0.;                           47P     73
126,4,2,0,0,0,0,0.,0.,0.,1.5707963267949,1.5707963267949,             49P     74
3.14159265358979,3.14159265358979,3.14159265358979,1.,                49P     75
0.707106781186548,1.,0.707106781186548,1.,6.35,1.,                    49P     76
-2.22044604925031D-16,6.35,0.999999999999999,-6.35,                   49P     77
3.88825358729285D-16,0.999999999999999,-6.35,-6.35,                   49P     78
0.999999999999999,-6.35,-6.35,1.,-9.99695322383601D-16,0.,            49P     79
3.14159265358979,0.,0.,0.;                                            49P     80
126,4,2,0,0,0,0,3.14159265358979,3.14159265358979,                    51P     81
3.14159265358979,4.71238898038469,4.71238898038469,                   51P     82
6.28318530717959,6.28318530717959,6.28318530717959,1.,                51P     83
0.707106781186548,1.,0.707106781186548,1.,-6.35,1.,                   51P     84
-9.99695322383601D-16,-6.35,1.,6.35,-1.16647607618785D-15,1.,         51P     85
6.35,6.35,1.,6.35,6.35,1.,1.33325682999211D-15,3.14159265358979,      51P     86
6.28318530717959,0.,0.,0.;                                            51P     87
126,1,1,0,0,1,0,-0.078740157480315,-0.078740157480315,                53P     88
0.078740157480315,0.078740157480315,1.,1.,-6.35,1.,                   53P     89
-2.22044604925031D-16,-6.35,0.,0.,-0.078740157480315,                 53P     90
0.078740157480315,0.,0.,0.;                                           53P     91
126,4,2,0,0,0,0,0.,0.,0.,1.5707963267949,1.5707963267949,             55P     92
3.14159265358979,3.14159265358979,3.14159265358979,1.,                55P     93
0.707106781186548,1.,0.707106781186548,1.,6.35,0.,0.,6.35,            55P     94
1.40998324127395D-15,6.35,3.88825358729285D-16,                       55P     95
1.40998324127395D-15,6.35,-6.35,1.40998324127395D-15,6.35,-6.35,      55P     96
1.72673146327755D-31,7.77650717458569D-16,0.,3.14159265358979,        55P     97
0.,0.,0.;                                                             55P     98
126,4,2,0,0,0,0,3.14159265358979,3.14159265358979,                    57P     99
3.14159265358979,4.71238898038469,4.71238898038469,                   57P    100
6.28318530717959,6.28318530717959,6.28318530717959,1.,                57P    101
0.707106781186548,1.,0.707106781186548,1.,-6.35,                      57P    102
1.72673146327755D-31,7.77650717458569D-16,-6.35,                      57P    103
-1.40998324127395D-15,-6.35,-1.16647607618785D-15,                    57P    104
-1.40998324127395D-15,-6.35,6.35,-1.40998324127395D-15,-6.35,         57P    105
6.35,-3.4534629265551D-31,-1.55530143491714D-15,                      57P    106
3.14159265358979,6.28318530717959,0.,0.,0.;                           57P    107
128,2,8,2,2,0,1,0,0,1,-1.11022302462516D-16,                          59P    108
-1.11022302462516D-16,-1.11022302462516D-16,1.5707963267949,          59P    109
1.5707963267949,1.5707963267949,-3.14159265358979,                    59P    110
-3.14159265358979,-3.14159265358979,-1.5707963267949,                 59P    111
-1.5707963267949,0.,0.,1.5707963267949,1.5707963267949,               59P    112
3.14159265358979,3.14159265358979,3.14159265358979,1.,                59P    113
0.707106781186543,1.,0.707106781186548,0.499999999999997,             59P    114
0.707106781186548,1.,0.707106781186543,1.,0.707106781186548,          59P    115
0.499999999999997,0.707106781186548,1.,0.707106781186543,1.,          59P    116
0.707106781186548,0.499999999999997,0.707106781186548,1.,             59P    117
0.707106781186543,1.,0.707106781186548,0.499999999999997,             59P    118
0.707106781186548,1.,0.707106781186543,1.,0.,7.5,-4.75,0.,7.5,        59P    119
-5.25,0.,7.,-5.25,-4.75,7.5,-4.75,-5.25,7.5,-5.25,-5.25,7.,           59P    120
-5.25,-4.75,7.5,-1.66533453693773D-15,-5.25,7.5,                      59P    121
-1.66533453693773D-15,-5.25,7.,-1.55431223447522D-15,-4.75,7.5,       59P    122
4.75,-5.25,7.5,5.25,-5.25,7.,5.25,0.,7.5,4.75,0.,7.5,5.25,0.,7.,      59P    123
5.25,4.75,7.5,4.75,5.25,7.5,5.25,5.25,7.,5.25,4.75,7.5,               59P    124
-1.66533453693773D-15,5.25,7.5,-1.66533453693773D-15,5.25,7.,         59P    125
-1.55431223447522D-15,4.75,7.5,-4.75,5.25,7.5,-5.25,5.25,7.,          59P    126
-5.25,0.,7.5,-4.75,0.,7.5,-5.25,0.,7.,-5.25,                          59P    127
-1.11022302462516D-16,1.5707963267949,-3.14159265358979,              59P    128
3.14159265358979;                                                     59P    129
128,1,1,1,1,0,0,1,0,0,-0.476,-0.476,0.476,0.476,-0.476,-0.476,        61P    130
0.476,0.476,1.,1.,1.,1.,-4.76,7.5,4.76,4.76,7.5,4.76,-4.76,7.5,       61P    131
-4.76,4.76,7.5,-4.76,-0.476,0.476,-0.476,0.476;                       61P    132
128,1,8,1,2,0,1,0,0,1,-0.476190476190476,-0.476190476190476,          63P    133
0.666666666666667,0.666666666666667,-3.14159265358979,                63P    134
-3.14159265358979,-3.14159265358979,-1.5707963267949,                 63P    135
-1.5707963267949,0.,0.,1.5707963267949,1.5707963267949,               63P    136
3.14159265358979,3.14159265358979,3.14159265358979,1.,1.,             63P    137
0.707106781186548,0.707106781186548,1.,1.,0.707106781186548,          63P    138
0.707106781186548,1.,1.,0.707106781186548,0.707106781186548,1.,       63P    139
1.,0.707106781186548,0.707106781186548,1.,1.,-5.25,7.,                63P    140
-1.55431223447522D-15,-5.25,1.,-2.22044604925031D-16,-5.25,7.,        63P    141
5.25,-5.25,1.,5.25,0.,7.,5.25,0.,1.,5.25,5.25,7.,5.25,5.25,1.,        63P    142
5.25,5.25,7.,-1.55431223447522D-15,5.25,1.,                           63P    143
-2.22044604925031D-16,5.25,7.,-5.25,5.25,0.999999999999999,           63P    144
-5.25,0.,7.,-5.25,0.,0.999999999999999,-5.25,-5.25,7.,-5.25,          63P    145
-5.25,0.999999999999999,-5.25,-5.25,7.,-1.55431223447522D-15,         63P    146
-5.25,1.,-2.22044604925031D-16,-0.476190476190476,                    63P    147
0.666666666666667,-3.14159265358979,3.14159265358979;                 63P    148
128,1,8,1,2,0,1,0,0,1,-0.078740157480315,-0.078740157480315,          65P    149
0.078740157480315,0.078740157480315,-3.14159265358979,                65P    150
-3.14159265358979,-3.14159265358979,-1.5707963267949,                 65P    151
-1.5707963267949,0.,0.,1.5707963267949,1.5707963267949,               65P    152
3.14159265358979,3.14159265358979,3.14159265358979,1.,1.,             65P    153
0.707106781186548,0.707106781186548,1.,1.,0.707106781186548,          65P    154
0.707106781186548,1.,1.,0.707106781186548,0.707106781186548,1.,       65P    155
1.,0.707106781186548,0.707106781186548,1.,1.,-6.35,1.,                65P    156
-2.22044604925031D-16,-6.35,0.,0.,-6.35,1.,6.35,-6.35,                65P    157
1.40998324127395D-15,6.35,0.,1.,6.35,0.,1.40998324127395D-15,         65P    158
6.35,6.35,1.,6.35,6.35,1.40998324127395D-15,6.35,6.35,1.,             65P    159
-2.22044604925031D-16,6.35,0.,0.,6.35,0.999999999999999,-6.35,        65P    160
6.35,-1.40998324127395D-15,-6.35,0.,0.999999999999999,-6.35,0.,       65P    161
-1.40998324127395D-15,-6.35,-6.35,0.999999999999999,-6.35,-6.35,      65P    162
-1.40998324127395D-15,-6.35,-6.35,1.,-2.22044604925031D-16,           65P    163
-6.35,0.,0.,-0.078740157480315,0.078740157480315,                     65P    164
-3.14159265358979,3.14159265358979;                                   65P    165
128,1,1,1,1,0,0,1,0,0,-0.636,-0.636,0.636,0.636,-0.636,-0.636,        67P    166
0.636,0.636,1.,1.,1.,1.,6.36,1.4122036873232D-15,6.36,-6.36,          67P    167
1.4122036873232D-15,6.36,6.36,-1.4122036873232D-15,-6.36,-6.36,       67P    168
-1.4122036873232D-15,-6.36,-0.636,0.636,-0.636,0.636;                 67P    169
128,1,1,1,1,0,0,1,0,0,-0.636,-0.636,0.636,0.636,-0.636,-0.636,        69P    170
0.636,0.636,1.,1.,1.,1.,-6.36,1.,6.36,6.36,1.,6.36,-6.36,             69P    171
0.999999999999999,-6.36,6.36,0.999999999999999,-6.36,-0.636,          69P    172
0.636,-0.636,0.636;                                                   69P    173
502,11,4.75,7.5,-5.01920077747749D-16,0.,7.5,-4.75,0.,7.,-5.25,       71P    174
-5.25,7.,-1.55431223447522D-15,5.25,7.,-1.55431223447522D-15,         71P    175
-5.25,1.,-2.22044604925031D-16,5.25,1.,-2.22044604925031D-16,         71P    176
6.35,1.,-2.22044604925031D-16,-6.35,1.,-2.22044604925031D-16,         71P    177
-6.35,0.,0.,6.35,0.,0.;                                               71P    178
504,14,31,71,1,71,2,33,71,2,71,3,35,71,3,71,4,37,71,4,71,5,39,        73P    179
71,5,71,3,41,71,2,71,1,43,71,4,71,6,45,71,7,71,6,47,71,6,71,7,        73P    180
49,71,8,71,9,51,71,9,71,8,53,71,9,71,10,55,71,11,71,10,57,71,10,      73P    181
71,11;                                                                73P    182
406,1,5HBody1;                                                        75P    183
314,96.4705882352941,96.4705882352941,95.2941176470588,24HPlasti      77P    184
c - Glossy (White);                                                   77P    185
314,62.7450980392157,62.7450980392157,62.7450980392157,13HSteel       79P    186
- Satin;                                                              79P    187
S      1G      3D     80P    187                                        T      1
