                                                                        S      1
,,10HController,10HController,7Hunknown,7Hunknown,32,38,7,99,15,,1.,2,2HG      1
MM,1,0.08,15H20170103.185444,0.01,10000.,7Hunknown,7Hunknown,11,0,;     G      2
     186       1                                                00000000D      1
     186            -231       1       0                               0D      2
     514       2                                                00010000D      3
     514                       2       1                               0D      4
     510       4                                                00010000D      5
     510            -231       1       1                               0D      6
     510       5                                                00010000D      7
     510            -231       1       1                               0D      8
     510       6                                                00010000D      9
     510            -231       1       1                               0D     10
     510       7                                                00010000D     11
     510            -231       1       1                               0D     12
     510       8                                                00010000D     13
     510            -231       1       1                               0D     14
     510       9                                                00010000D     15
     510            -231       1       1                               0D     16
     510      10                                                00010000D     17
     510            -231       1       1                               0D     18
     510      11                                                00010000D     19
     510            -231       1       1                               0D     20
     510      12                                                00010000D     21
     510            -231       1       1                               0D     22
     510      13                                                00010000D     23
     510            -231       1       1                               0D     24
     510      14                                                00010000D     25
     510            -231       1       1                               0D     26
     510      15                                                00010000D     27
     510            -231       1       1                               0D     28
     510      16                                                00010000D     29
     510            -231       1       1                               0D     30
     510      17                                                00010000D     31
     510            -231       1       1                               0D     32
     510      18                                                00010000D     33
     510            -231       1       1                               0D     34
     510      19                                                00010000D     35
     510            -231       1       1                               0D     36
     508      20                                                00010000D     37
     508                       1       1                               0D     38
     508      21                                                00010000D     39
     508                       1       1                               0D     40
     508      22                                                00010000D     41
     508                       1       1                               0D     42
     508      23                                                00010000D     43
     508                       1       1                               0D     44
     508      24                                                00010000D     45
     508                       1       1                               0D     46
     508      25                                                00010000D     47
     508                       1       1                               0D     48
     508      26                                                00010000D     49
     508                       1       1                               0D     50
     508      27                                                00010000D     51
     508                       1       1                               0D     52
     508      28                                                00010000D     53
     508                       1       1                               0D     54
     508      29                                                00010000D     55
     508                       1       1                               0D     56
     508      30                                                00010000D     57
     508                       1       1                               0D     58
     508      31                                                00010000D     59
     508                       1       1                               0D     60
     508      32                                                00010000D     61
     508                       1       1                               0D     62
     508      33                                                00010000D     63
     508                       1       1                               0D     64
     508      34                                                00010000D     65
     508                       1       1                               0D     66
     508      35                                                00010000D     67
     508                       1       1                               0D     68
     508      36                                                00010000D     69
     508                       1       1                               0D     70
     508      37                                                00010000D     71
     508                       1       1                               0D     72
     508      38                                                00010000D     73
     508                       1       1                               0D     74
     508      39                                                00010000D     75
     508                       1       1                               0D     76
     508      40                                                00010000D     77
     508                       2       1                               0D     78
     508      42                                                00010000D     79
     508                       2       1                               0D     80
     508      44                                                00010000D     81
     508                       2       1                               0D     82
     508      46                                                00010000D     83
     508                       2       1                               0D     84
     508      48                                                00010000D     85
     508                       2       1                               0D     86
     508      50                                                00010000D     87
     508                       2       1                               0D     88
     508      52                                                00010000D     89
     508                       1       1                               0D     90
     508      53                                                00010000D     91
     508                       1       1                               0D     92
     508      54                                                00010000D     93
     508                       1       1                               0D     94
     508      55                                                00010000D     95
     508                       1       1                               0D     96
     126      56                                                00010000D     97
     126       0               4       0                               0D     98
     126      60                                                00010000D     99
     126       0               3       0                               0D    100
     126      63                                                00010000D    101
     126       0               4       0                               0D    102
     126      67                                                00010000D    103
     126       0               3       0                               0D    104
     126      70                                                00010000D    105
     126       0               3       0                               0D    106
     126      73                                                00010000D    107
     126       0               3       0                               0D    108
     126      76                                                00010000D    109
     126       0               2       0                               0D    110
     126      78                                                00010000D    111
     126       0               9       0                               0D    112
     126      87                                                00010000D    113
     126       0              11       0                               0D    114
     126      98                                                00010000D    115
     126       0               6       0                               0D    116
     126     104                                                00010000D    117
     126       0               7       0                               0D    118
     126     111                                                00010000D    119
     126       0               5       0                               0D    120
     126     116                                                00010000D    121
     126       0               6       0                               0D    122
     126     122                                                00010000D    123
     126       0               5       0                               0D    124
     126     127                                                00010000D    125
     126       0               6       0                               0D    126
     126     133                                                00010000D    127
     126       0               6       0                               0D    128
     126     139                                                00010000D    129
     126       0               7       0                               0D    130
     126     146                                                00010000D    131
     126       0               3       0                               0D    132
     126     149                                                00010000D    133
     126       0               3       0                               0D    134
     126     152                                                00010000D    135
     126       0               2       0                               0D    136
     126     154                                                00010000D    137
     126       0               3       0                               0D    138
     126     157                                                00010000D    139
     126       0               3       0                               0D    140
     126     160                                                00010000D    141
     126       0               4       0                               0D    142
     126     164                                                00010000D    143
     126       0               2       0                               0D    144
     126     166                                                00010000D    145
     126       0               4       0                               0D    146
     126     170                                                00010000D    147
     126       0               2       0                               0D    148
     126     172                                                00010000D    149
     126       0               5       0                               0D    150
     126     177                                                00010000D    151
     126       0               6       0                               0D    152
     126     183                                                00010000D    153
     126       0               6       0                               0D    154
     126     189                                                00010000D    155
     126       0               7       0                               0D    156
     126     196                                                00010000D    157
     126       0              11       0                               0D    158
     126     207                                                00010000D    159
     126       0               9       0                               0D    160
     126     216                                                00010000D    161
     126       0               9       0                               0D    162
     126     225                                                00010000D    163
     126       0              11       0                               0D    164
     126     236                                                00010000D    165
     126       0               3       0                               0D    166
     126     239                                                00010000D    167
     126       0               3       0                               0D    168
     126     242                                                00010000D    169
     126       0               2       0                               0D    170
     126     244                                                00010000D    171
     126       0               3       0                               0D    172
     126     247                                                00010000D    173
     126       0               4       0                               0D    174
     126     251                                                00010000D    175
     126       0               4       0                               0D    176
     126     255                                                00010000D    177
     126       0               4       0                               0D    178
     126     259                                                00010000D    179
     126       0               3       0                               0D    180
     126     262                                                00010000D    181
     126       0               3       0                               0D    182
     126     265                                                00010000D    183
     126       0               4       0                               0D    184
     126     269                                                00010000D    185
     126       0               3       0                               0D    186
     126     272                                                00010000D    187
     126       0               3       0                               0D    188
     126     275                                                00010000D    189
     126       0               3       0                               0D    190
     126     278                                                00010000D    191
     126       0               3       0                               0D    192
     128     281                                                00010000D    193
     128       0    -231       6       0                               0D    194
     128     287                                                00010000D    195
     128       0    -231       4       0                               0D    196
     128     291                                                00010000D    197
     128       0    -231       5       0                               0D    198
     128     296                                                00010000D    199
     128       0    -231       6       0                               0D    200
     128     302                                                00010000D    201
     128       0    -231       4       0                               0D    202
     128     306                                                00010000D    203
     128       0    -231       6       0                               0D    204
     128     312                                                00010000D    205
     128       0    -231      15       0                               0D    206
     128     327                                                00010000D    207
     128       0    -231      18       0                               0D    208
     128     345                                                00010000D    209
     128       0    -231      18       0                               0D    210
     128     363                                                00010000D    211
     128       0    -231      15       0                               0D    212
     128     378                                                00010000D    213
     128       0    -231      15       0                               0D    214
     128     393                                                00010000D    215
     128       0    -231      18       0                               0D    216
     128     411                                                00010000D    217
     128       0    -231       4       0                               0D    218
     128     415                                                00010000D    219
     128       0    -231       4       0                               0D    220
     128     419                                                00010000D    221
     128       0    -231       4       0                               0D    222
     128     423                                                00010000D    223
     128       0    -231       4       0                               0D    224
     502     427                                                00010000D    225
     502                      13       1                               0D    226
     504     440                                                00010001D    227
     504                      14       1                               0D    228
     406     454                                                00000000D    229
     406                       1      15                               0D    230
     314     455                                                00000200D    231
     314                       2       0                               0D    232
     314     457                                                00000200D    233
     314                       2       0                               0D    234
186,3,1,0,0,1,229;                                                     1P      1
514,16,5,1,7,1,9,1,11,1,13,1,15,1,17,1,19,1,21,1,23,1,25,1,27,1,       3P      2
29,1,31,1,33,1,35,1;                                                   3P      3
510,193,1,1,37;                                                        5P      4
510,195,8,1,39,41,43,45,47,49,51,53;                                   7P      5
510,197,1,1,55;                                                        9P      6
510,199,1,1,57;                                                       11P      7
510,201,8,1,59,61,63,65,67,69,71,73;                                  13P      8
510,203,1,1,75;                                                       15P      9
510,205,1,1,77;                                                       17P     10
510,207,1,1,79;                                                       19P     11
510,209,1,1,81;                                                       21P     12
510,211,1,1,83;                                                       23P     13
510,213,1,1,85;                                                       25P     14
510,215,1,1,87;                                                       27P     15
510,217,1,1,89;                                                       29P     16
510,219,1,1,91;                                                       31P     17
510,221,1,1,93;                                                       33P     18
510,223,1,1,95;                                                       35P     19
508,4,0,227,1,0,0,0,227,2,0,0,0,227,3,0,0,0,227,4,0,0;                37P     20
508,4,0,227,2,1,0,0,227,5,1,0,0,227,6,1,0,0,227,7,1,0;                39P     21
508,1,0,227,8,1,0;                                                    41P     22
508,1,0,227,9,1,0;                                                    43P     23
508,2,0,227,10,1,0,0,227,11,1,0;                                      45P     24
508,2,0,227,12,1,0,0,227,13,1,0;                                      47P     25
508,2,0,227,14,1,0,0,227,15,1,0;                                      49P     26
508,2,0,227,16,1,0,0,227,17,1,0;                                      51P     27
508,4,0,227,18,1,0,0,227,19,1,0,0,227,20,1,0,0,227,21,1,0;            53P     28
508,4,0,227,1,1,0,0,227,22,0,0,0,227,23,1,0,0,227,5,0,0;              55P     29
508,4,0,227,23,0,0,0,227,24,0,0,0,227,25,0,0,0,227,6,0,0;             57P     30
508,4,0,227,4,1,0,0,227,26,1,0,0,227,24,1,0,0,227,22,1,0;             59P     31
508,2,0,227,27,1,0,0,227,28,1,0;                                      61P     32
508,2,0,227,29,1,0,0,227,30,1,0;                                      63P     33
508,1,0,227,31,1,0;                                                   65P     34
508,1,0,227,32,1,0;                                                   67P     35
508,1,0,227,33,1,0;                                                   69P     36
508,1,0,227,34,1,0;                                                   71P     37
508,4,0,227,35,1,0,0,227,36,1,0,0,227,37,1,0,0,227,38,1,0;            73P     38
508,4,0,227,3,1,0,0,227,7,0,0,0,227,25,1,0,0,227,26,0,0;              75P     39
508,5,0,227,27,0,0,0,227,28,0,0,0,227,39,1,0,0,227,8,0,0,0,227,       77P     40
39,0,0;                                                               77P     41
508,5,0,227,29,0,0,0,227,30,0,0,0,227,40,1,0,0,227,9,0,0,0,227,       79P     42
40,0,0;                                                               79P     43
508,5,0,227,10,0,0,0,227,11,0,0,0,227,41,1,0,0,227,31,0,0,0,227,      81P     44
41,0,0;                                                               81P     45
508,5,0,227,12,0,0,0,227,13,0,0,0,227,42,1,0,0,227,32,0,0,0,227,      83P     46
42,0,0;                                                               83P     47
508,5,0,227,14,0,0,0,227,15,0,0,0,227,43,1,0,0,227,33,0,0,0,227,      85P     48
43,0,0;                                                               85P     49
508,5,0,227,16,0,0,0,227,17,0,0,0,227,44,1,0,0,227,34,0,0,0,227,      87P     50
44,0,0;                                                               87P     51
508,4,0,227,36,0,0,0,227,45,0,0,0,227,21,0,0,0,227,46,0,0;            89P     52
508,4,0,227,37,0,0,0,227,46,1,0,0,227,20,0,0,0,227,47,0,0;            91P     53
508,4,0,227,38,0,0,0,227,47,1,0,0,227,19,0,0,0,227,48,0,0;            93P     54
508,4,0,227,35,0,0,0,227,48,1,0,0,227,18,0,0,0,227,45,1,0;            95P     55
126,1,1,0,0,1,0,-0.0800000000000001,-0.0800000000000001,              97P     56
0.0800000000000001,0.0800000000000001,1.,1.,0.249999999999999,        97P     57
11.1,0.575000000000001,0.249999999999999,9.5,0.575000000000001,       97P     58
-0.0800000000000001,0.0800000000000001,0.,0.,0.;                      97P     59
126,1,1,0,0,1,0,-5.075,-5.075,5.075,5.075,1.,1.,101.75,11.1,          99P     60
0.575000000000001,0.250000000000004,11.1,0.575000000000001,           99P     61
-5.075,5.075,0.,0.,0.;                                                99P     62
126,1,1,0,0,1,0,-0.0800000000000001,-0.0800000000000001,             101P     63
0.0800000000000001,0.0800000000000001,1.,1.,101.75,9.5,              101P     64
0.575000000000001,101.75,11.1,0.575000000000001,                     101P     65
-0.0800000000000001,0.0800000000000001,0.,0.,0.;                     101P     66
126,1,1,0,0,1,0,-5.075,-5.075,5.075,5.075,1.,1.,                     103P     67
0.250000000000004,9.5,0.575000000000001,101.75,9.5,                  103P     68
0.575000000000001,-5.075,5.075,0.,0.,0.;                             103P     69
126,1,1,0,0,1,0,-6.35,-6.35,6.35,6.35,1.,1.,0.250000000000004,       105P     70
11.1,0.575000000000001,0.250000000000004,11.1,127.575,-6.35,         105P     71
6.35,0.,0.,0.;                                                       105P     72
126,1,1,0,0,1,0,-5.075,-5.075,5.075,5.075,1.,1.,                     107P     73
0.250000000000004,11.1,127.575,101.75,11.1,127.575,-5.075,5.075,     107P     74
0.,0.,0.;                                                            107P     75
126,1,1,0,0,1,0,-6.35,-6.35,6.35,6.35,1.,1.,101.75,11.1,127.575,     109P     76
101.75,11.1,0.575000000000001,-6.35,6.35,0.,0.,0.;                   109P     77
126,8,2,0,1,0,0,-3.14159265358979,-3.14159265358979,                 111P     78
-3.14159265358979,-1.5707963267949,-1.5707963267949,0.,0.,           111P     79
1.5707963267949,1.5707963267949,3.14159265358979,                    111P     80
3.14159265358979,3.14159265358979,1.,0.707106781186545,1.,           111P     81
0.707106781186545,1.,0.707106781186545,1.,0.707106781186545,1.,      111P     82
97.12,11.1,123.192,94.995,11.1,123.192,94.995,11.1,121.067,          111P     83
94.995,11.1,118.942,97.12,11.1,118.942,99.245,11.1,118.942,          111P     84
99.245,11.1,121.067,99.245,11.1,123.192,97.12,11.1,123.192,          111P     85
-3.14159265358979,3.14159265358979,0.,0.,0.;                         111P     86
126,8,2,0,1,0,0,-3.14159265358979,-3.14159265358979,                 113P     87
-3.14159265358979,-1.5707963267949,-1.5707963267949,0.,0.,           113P     88
1.5707963267949,1.5707963267949,3.14159265358979,                    113P     89
3.14159265358979,3.14159265358979,1.,0.707106781186546,1.,           113P     90
0.707106781186546,1.,0.707106781186546,1.,0.707106781186546,1.,      113P     91
5.40500000000002,11.1,123.192,3.28000000000002,11.1,123.192,         113P     92
3.28000000000002,11.1,121.067,3.28000000000002,11.1,118.942,         113P     93
5.40500000000002,11.1,118.942,7.53000000000002,11.1,118.942,         113P     94
7.53000000000002,11.1,121.067,7.53000000000002,11.1,123.192,         113P     95
5.40500000000002,11.1,123.192,-3.14159265358979,                     113P     96
3.14159265358979,0.,0.,0.;                                           113P     97
126,4,2,0,0,0,0,0.,0.,0.,1.5707963267949,1.5707963267949,            115P     98
3.14159265358979,3.14159265358979,3.14159265358979,1.,               115P     99
0.707106781186548,1.,0.707106781186548,1.,5.40500000000002,11.1,     115P    100
9.2075,3.28000000000002,11.1,9.2075,3.28000000000002,11.1,           115P    101
7.0825,3.28000000000002,11.1,4.9575,5.40500000000002,11.1,           115P    102
4.9575,0.,3.14159265358979,0.,0.,0.;                                 115P    103
126,4,2,0,0,0,0,3.14159265358979,3.14159265358979,                   117P    104
3.14159265358979,4.71238898038469,4.71238898038469,                  117P    105
6.28318530717959,6.28318530717959,6.28318530717959,1.,               117P    106
0.707106781186548,1.,0.707106781186547,1.,5.40500000000002,11.1,     117P    107
4.9575,7.53000000000002,11.1,4.9575,7.53000000000002,11.1,           117P    108
7.0825,7.53000000000002,11.1,9.2075,5.40500000000002,11.1,           117P    109
9.2075,3.14159265358979,6.28318530717959,0.,0.,0.;                   117P    110
126,4,2,0,0,0,0,0.,0.,0.,1.5707963267949,1.5707963267949,            119P    111
3.14159265358979,3.14159265358979,3.14159265358979,1.,               119P    112
0.707106781186545,1.,0.707106781186545,1.,97.12,11.1,59.1175,        119P    113
94.995,11.1,59.1175,94.995,11.1,56.9925,94.995,11.1,54.8675,         119P    114
97.12,11.1,54.8675,0.,3.14159265358979,0.,0.,0.;                     119P    115
126,4,2,0,0,0,0,3.14159265358979,3.14159265358979,                   121P    116
3.14159265358979,4.71238898038469,4.71238898038469,                  121P    117
6.28318530717959,6.28318530717959,6.28318530717959,1.,               121P    118
0.707106781186545,1.,0.707106781186545,1.,97.12,11.1,54.8675,        121P    119
99.245,11.1,54.8675,99.245,11.1,56.9925,99.245,11.1,59.1175,         121P    120
97.12,11.1,59.1175,3.14159265358979,6.28318530717959,0.,0.,0.;       121P    121
126,4,2,0,0,0,0,0.,0.,0.,1.5707963267949,1.5707963267949,            123P    122
3.14159265358979,3.14159265358979,3.14159265358979,1.,               123P    123
0.707106781186546,1.,0.707106781186546,1.,96.595,11.1,9.2075,        123P    124
94.47,11.1,9.2075,94.47,11.1,7.0825,94.47,11.1,4.9575,96.595,        123P    125
11.1,4.9575,0.,3.14159265358979,0.,0.,0.;                            123P    126
126,4,2,0,0,0,0,3.14159265358979,3.14159265358979,                   125P    127
3.14159265358979,4.71238898038469,4.71238898038469,                  125P    128
6.28318530717959,6.28318530717959,6.28318530717959,1.,               125P    129
0.707106781186546,1.,0.707106781186545,1.,96.595,11.1,4.9575,        125P    130
98.72,11.1,4.9575,98.72,11.1,7.0825,98.72,11.1,9.2075,96.595,        125P    131
11.1,9.2075,3.14159265358979,6.28318530717959,0.,0.,0.;              125P    132
126,4,2,0,0,0,0,0.,0.,0.,1.5707963267949,1.5707963267949,            127P    133
3.14159265358979,3.14159265358979,3.14159265358979,1.,               127P    134
0.707106781186546,1.,0.707106781186546,1.,5.40500000000002,11.1,     127P    135
59.1175,3.28000000000002,11.1,59.1175,3.28000000000002,11.1,         127P    136
56.9925,3.28000000000002,11.1,54.8675,5.40500000000002,11.1,         127P    137
54.8675,0.,3.14159265358979,0.,0.,0.;                                127P    138
126,4,2,0,0,0,0,3.14159265358979,3.14159265358979,                   129P    139
3.14159265358979,4.71238898038469,4.71238898038469,                  129P    140
6.28318530717959,6.28318530717959,6.28318530717959,1.,               129P    141
0.707106781186546,1.,0.707106781186546,1.,5.40500000000002,11.1,     129P    142
54.8675,7.53000000000002,11.1,54.8675,7.53000000000002,11.1,         129P    143
56.9925,7.53000000000002,11.1,59.1175,5.40500000000002,11.1,         129P    144
59.1175,3.14159265358979,6.28318530717959,0.,0.,0.;                  129P    145
126,1,1,0,0,1,0,-2.1865,-2.1865,6.4345,6.4345,1.,1.,7.77,11.1,       131P    146
3.27750000000001,93.98,11.1,3.27750000000001,-2.1865,6.4345,0.,      131P    147
0.,0.;                                                               131P    148
126,1,1,0,0,1,0,-5.903375,-5.903375,-0.151374999999999,              133P    149
-0.151374999999999,1.,1.,93.98,11.1,3.2775,93.98,11.1,60.7975,       133P    150
-5.903375,-0.151374999999999,0.,0.,0.;                               133P    151
126,1,1,0,0,1,0,-6.4345,-6.4345,2.1865,2.1865,1.,1.,93.98,11.1,      135P    152
60.7975,7.77,11.1,60.7975,-6.4345,2.1865,0.,0.,0.;                   135P    153
126,1,1,0,0,1,0,-1.274125,-1.274125,4.477875,4.477875,1.,1.,         137P    154
7.77,11.1,60.7975,7.77,11.1,3.27750000000001,-1.274125,4.477875,     137P    155
0.,0.,0.;                                                            137P    156
126,1,1,0,0,1,0,-6.35,-6.35,6.35,6.35,1.,1.,0.250000000000004,       139P    157
9.5,127.575,0.250000000000004,9.5,0.575000000000001,-6.35,6.35,      139P    158
0.,0.,0.;                                                            139P    159
126,1,1,0,0,1,0,-0.0800000000000001,-0.0800000000000001,             141P    160
0.0800000000000001,0.0800000000000001,1.,1.,0.249999999999999,       141P    161
9.5,127.575,0.249999999999999,11.1,127.575,-0.0800000000000001,      141P    162
0.0800000000000001,0.,0.,0.;                                         141P    163
126,1,1,0,0,1,0,-5.075,-5.075,5.075,5.075,1.,1.,101.75,9.5,          143P    164
127.575,0.250000000000004,9.5,127.575,-5.075,5.075,0.,0.,0.;         143P    165
126,1,1,0,0,1,0,-0.0800000000000001,-0.0800000000000001,             145P    166
0.0800000000000001,0.0800000000000001,1.,1.,101.75,11.1,127.575,     145P    167
101.75,9.5,127.575,-0.0800000000000001,0.0800000000000001,0.,0.,     145P    168
0.;                                                                  145P    169
126,1,1,0,0,1,0,-6.35,-6.35,6.35,6.35,1.,1.,101.75,9.5,              147P    170
0.575000000000001,101.75,9.5,127.575,-6.35,6.35,0.,0.,0.;            147P    171
126,4,2,0,0,0,0,0.,0.,0.,1.5707963267949,1.5707963267949,            149P    172
3.14159265358979,3.14159265358979,3.14159265358979,1.,               149P    173
0.707106781186545,1.,0.707106781186545,1.,97.12,9.5,118.942,         149P    174
94.995,9.5,118.942,94.995,9.5,121.067,94.995,9.5,123.192,97.12,      149P    175
9.5,123.192,0.,3.14159265358979,0.,0.,0.;                            149P    176
126,4,2,0,0,0,0,3.14159265358979,3.14159265358979,                   151P    177
3.14159265358979,4.71238898038469,4.71238898038469,                  151P    178
6.28318530717959,6.28318530717959,6.28318530717959,1.,               151P    179
0.707106781186545,1.,0.707106781186545,1.,97.12,9.5,123.192,         151P    180
99.245,9.5,123.192,99.245,9.5,121.067,99.245,9.5,118.942,97.12,      151P    181
9.5,118.942,3.14159265358979,6.28318530717959,0.,0.,0.;              151P    182
126,4,2,0,0,0,0,0.,0.,0.,1.5707963267949,1.5707963267949,            153P    183
3.14159265358979,3.14159265358979,3.14159265358979,1.,               153P    184
0.707106781186546,1.,0.707106781186546,1.,5.40500000000002,9.5,      153P    185
118.942,3.28000000000002,9.5,118.942,3.28000000000002,9.5,           153P    186
121.067,3.28000000000002,9.5,123.192,5.40500000000002,9.5,           153P    187
123.192,0.,3.14159265358979,0.,0.,0.;                                153P    188
126,4,2,0,0,0,0,3.14159265358979,3.14159265358979,                   155P    189
3.14159265358979,4.71238898038469,4.71238898038469,                  155P    190
6.28318530717959,6.28318530717959,6.28318530717959,1.,               155P    191
0.707106781186546,1.,0.707106781186546,1.,5.40500000000002,9.5,      155P    192
123.192,7.53000000000002,9.5,123.192,7.53000000000002,9.5,           155P    193
121.067,7.53000000000002,9.5,118.942,5.40500000000002,9.5,           155P    194
118.942,3.14159265358979,6.28318530717959,0.,0.,0.;                  155P    195
126,8,2,0,1,0,0,-3.14159265358979,-3.14159265358979,                 157P    196
-3.14159265358979,-1.5707963267949,-1.5707963267949,0.,0.,           157P    197
1.5707963267949,1.5707963267949,3.14159265358979,                    157P    198
3.14159265358979,3.14159265358979,1.,0.707106781186548,1.,           157P    199
0.707106781186548,1.,0.707106781186548,1.,0.707106781186548,1.,      157P    200
5.40500000000002,9.5,4.9575,3.28000000000002,9.5,4.9575,             157P    201
3.28000000000002,9.5,7.0825,3.28000000000002,9.5,9.2075,             157P    202
5.40500000000002,9.5,9.2075,7.53000000000002,9.5,9.2075,             157P    203
7.53000000000002,9.5,7.0825,7.53000000000002,9.5,4.9575,             157P    204
5.40500000000002,9.5,4.9575,-3.14159265358979,3.14159265358979,      157P    205
0.,0.,0.;                                                            157P    206
126,8,2,0,1,0,0,-3.14159265358979,-3.14159265358979,                 159P    207
-3.14159265358979,-1.5707963267949,-1.5707963267949,0.,0.,           159P    208
1.5707963267949,1.5707963267949,3.14159265358979,                    159P    209
3.14159265358979,3.14159265358979,1.,0.707106781186545,1.,           159P    210
0.707106781186545,1.,0.707106781186545,1.,0.707106781186545,1.,      159P    211
97.12,9.5,54.8675,94.995,9.5,54.8675,94.995,9.5,56.9925,94.995,      159P    212
9.5,59.1175,97.12,9.5,59.1175,99.245,9.5,59.1175,99.245,9.5,         159P    213
56.9925,99.245,9.5,54.8675,97.12,9.5,54.8675,-3.14159265358979,      159P    214
3.14159265358979,0.,0.,0.;                                           159P    215
126,8,2,0,1,0,0,-3.14159265358979,-3.14159265358979,                 161P    216
-3.14159265358979,-1.5707963267949,-1.5707963267949,0.,0.,           161P    217
1.5707963267949,1.5707963267949,3.14159265358979,                    161P    218
3.14159265358979,3.14159265358979,1.,0.707106781186546,1.,           161P    219
0.707106781186546,1.,0.707106781186546,1.,0.707106781186546,1.,      161P    220
96.595,9.5,4.9575,94.47,9.5,4.9575,94.47,9.5,7.0825,94.47,9.5,       161P    221
9.2075,96.595,9.5,9.2075,98.72,9.5,9.2075,98.72,9.5,7.0825,          161P    222
98.72,9.5,4.9575,96.595,9.5,4.9575,-3.14159265358979,                161P    223
3.14159265358979,0.,0.,0.;                                           161P    224
126,8,2,0,1,0,0,-3.14159265358979,-3.14159265358979,                 163P    225
-3.14159265358979,-1.5707963267949,-1.5707963267949,0.,0.,           163P    226
1.5707963267949,1.5707963267949,3.14159265358979,                    163P    227
3.14159265358979,3.14159265358979,1.,0.707106781186546,1.,           163P    228
0.707106781186546,1.,0.707106781186546,1.,0.707106781186546,1.,      163P    229
5.40500000000002,9.5,54.8675,3.28000000000002,9.5,54.8675,           163P    230
3.28000000000002,9.5,56.9925,3.28000000000002,9.5,59.1175,           163P    231
5.40500000000002,9.5,59.1175,7.53000000000002,9.5,59.1175,           163P    232
7.53000000000002,9.5,56.9925,7.53000000000002,9.5,54.8675,           163P    233
5.40500000000002,9.5,54.8675,-3.14159265358979,3.14159265358979,     163P    234
0.,0.,0.;                                                            163P    235
126,1,1,0,0,1,0,-6.4345,-6.4345,2.1865,2.1865,1.,1.,93.98,9.5,       165P    236
3.27750000000001,7.77,9.5,3.27750000000001,-6.4345,2.1865,0.,0.,     165P    237
0.;                                                                  165P    238
126,1,1,0,0,1,0,-4.477875,-4.477875,1.274125,1.274125,1.,1.,         167P    239
7.77,9.5,3.27750000000001,7.77,9.5,60.7975,-4.477875,1.274125,       167P    240
0.,0.,0.;                                                            167P    241
126,1,1,0,0,1,0,-2.1865,-2.1865,6.4345,6.4345,1.,1.,7.77,9.5,        169P    242
60.7975,93.98,9.5,60.7975,-2.1865,6.4345,0.,0.,0.;                   169P    243
126,1,1,0,0,1,0,0.151374999999999,0.151374999999999,5.903375,        171P    244
5.903375,1.,1.,93.98,9.5,60.7975,93.98,9.5,3.2775,                   171P    245
0.151374999999999,5.903375,0.,0.,0.;                                 171P    246
126,1,1,0,0,1,0,-0.470588235294118,-0.470588235294118,               173P    247
0.282352941176471,0.282352941176471,1.,1.,97.12,9.5,123.192,         173P    248
97.12,11.1,123.192,-0.470588235294118,0.282352941176471,0.,0.,       173P    249
0.;                                                                  173P    250
126,1,1,0,0,1,0,-0.470588235294118,-0.470588235294118,               175P    251
0.282352941176471,0.282352941176471,1.,1.,5.40500000000002,9.5,      175P    252
123.192,5.40500000000002,11.1,123.192,-0.470588235294118,            175P    253
0.282352941176471,0.,0.,0.;                                          175P    254
126,1,1,0,0,1,0,-4.67976470588235,-4.67976470588235,                 177P    255
-3.92682352941176,-3.92682352941176,1.,1.,5.40500000000002,11.1,     177P    256
4.9575,5.40500000000002,9.5,4.9575,-4.67976470588235,                177P    257
-3.92682352941176,0.,0.,0.;                                          177P    258
126,1,1,0,0,1,0,-4.67976470588235,-4.67976470588235,                 179P    259
-3.92682352941176,-3.92682352941176,1.,1.,97.12,11.1,54.8675,        179P    260
97.12,9.5,54.8675,-4.67976470588235,-3.92682352941176,0.,0.,0.;      179P    261
126,1,1,0,0,1,0,-4.67976470588235,-4.67976470588235,                 181P    262
-3.92682352941176,-3.92682352941176,1.,1.,96.595,11.1,4.9575,        181P    263
96.595,9.5,4.9575,-4.67976470588235,-3.92682352941176,0.,0.,0.;      181P    264
126,1,1,0,0,1,0,-4.67976470588235,-4.67976470588235,                 183P    265
-3.92682352941176,-3.92682352941176,1.,1.,5.40500000000002,11.1,     183P    266
54.8675,5.40500000000002,9.5,54.8675,-4.67976470588235,              183P    267
-3.92682352941176,0.,0.,0.;                                          183P    268
126,1,1,0,0,1,0,-0.3175,-0.3175,-0.1575,-0.1575,1.,1.,7.77,11.1,     185P    269
3.27750000000001,7.77,9.5,3.27750000000001,-0.3175,-0.1575,0.,       185P    270
0.,0.;                                                               185P    271
126,1,1,0,0,1,0,-0.135,-0.135,0.0249999999999999,                    187P    272
0.0249999999999999,1.,1.,7.77,9.5,60.7975,7.77,11.1,60.7975,         187P    273
-0.135,0.0249999999999999,0.,0.,0.;                                  187P    274
126,1,1,0,0,1,0,-0.135,-0.135,0.0249999999999999,                    189P    275
0.0249999999999999,1.,1.,93.98,9.5,60.7975,93.98,11.1,60.7975,       189P    276
-0.135,0.0249999999999999,0.,0.,0.;                                  189P    277
126,1,1,0,0,1,0,-0.135,-0.135,0.0249999999999999,                    191P    278
0.0249999999999999,1.,1.,93.98,9.5,3.27750000000001,93.98,11.1,      191P    279
3.27750000000001,-0.135,0.0249999999999999,0.,0.,0.;                 191P    280
128,1,1,1,1,0,0,1,0,0,-5.076,-5.076,5.076,5.076,                     193P    281
-0.0810000000000001,-0.0810000000000001,0.0810000000000001,          193P    282
0.0810000000000001,1.,1.,1.,1.,101.76,9.49,0.575,                    193P    283
0.239999999999991,9.49,0.575,101.76,11.11,0.575,                     193P    284
0.239999999999991,11.11,0.575,-5.076,5.076,-0.0810000000000001,      193P    285
0.0810000000000001;                                                  193P    286
128,1,1,1,1,0,0,1,0,0,-6.351,-6.351,6.351,6.351,-5.076,-5.076,       195P    287
5.076,5.076,1.,1.,1.,1.,0.24,11.1,0.564999999999989,0.24,11.1,       195P    288
127.585,101.76,11.1,0.564999999999989,101.76,11.1,127.585,           195P    289
-6.351,6.351,-5.076,5.076;                                           195P    290
128,1,1,1,1,0,0,1,0,0,-6.351,-6.351,6.351,6.351,                     197P    291
-0.0810000000000001,-0.0810000000000001,0.0810000000000001,          197P    292
0.0810000000000001,1.,1.,1.,1.,0.25,9.49,0.564999999999989,0.25,     197P    293
9.49,127.585,0.25,11.11,0.564999999999998,0.25,11.11,127.585,        197P    294
-6.351,6.351,-0.0810000000000001,0.0810000000000001;                 197P    295
128,1,1,1,1,0,0,1,0,0,-5.076,-5.076,5.076,5.076,                     199P    296
-0.0810000000000001,-0.0810000000000001,0.0810000000000001,          199P    297
0.0810000000000001,1.,1.,1.,1.,0.239999999999991,9.49,127.575,       199P    298
101.76,9.49,127.575,0.239999999999991,11.11,127.575,101.76,          199P    299
11.11,127.575,-5.076,5.076,-0.0810000000000001,                      199P    300
0.0810000000000001;                                                  199P    301
128,1,1,1,1,0,0,1,0,0,-6.351,-6.351,6.351,6.351,-5.076,-5.076,       201P    302
5.076,5.076,1.,1.,1.,1.,0.24,9.5,127.585,0.24,9.5,                   201P    303
0.564999999999989,101.76,9.5,127.585,101.76,9.5,                     201P    304
0.564999999999989,-6.351,6.351,-5.076,5.076;                         201P    305
128,1,1,1,1,0,0,1,0,0,-6.351,-6.351,6.351,6.351,                     203P    306
-0.0810000000000001,-0.0810000000000001,0.0810000000000001,          203P    307
0.0810000000000001,1.,1.,1.,1.,101.75,9.49,127.585,101.75,9.49,      203P    308
0.564999999999989,101.75,11.11,127.585,101.75,11.11,                 203P    309
0.564999999999989,-6.351,6.351,-0.0810000000000001,                  203P    310
0.0810000000000001;                                                  203P    311
128,1,8,1,2,0,1,0,0,1,-0.470588235294118,-0.470588235294118,         205P    312
0.282352941176471,0.282352941176471,-3.14159265358979,               205P    313
-3.14159265358979,-3.14159265358979,-1.5707963267949,                205P    314
-1.5707963267949,0.,0.,1.5707963267949,1.5707963267949,              205P    315
3.14159265358979,3.14159265358979,3.14159265358979,1.,1.,            205P    316
0.707106781186548,0.707106781186548,1.,1.,0.707106781186548,         205P    317
0.707106781186548,1.,1.,0.707106781186548,0.707106781186548,1.,      205P    318
1.,0.707106781186548,0.707106781186548,1.,1.,97.12,9.5,123.192,      205P    319
97.12,11.1,123.192,99.245,9.5,123.192,99.245,11.1,123.192,           205P    320
99.245,9.5,121.067,99.245,11.1,121.067,99.245,9.5,118.942,           205P    321
99.245,11.1,118.942,97.12,9.5,118.942,97.12,11.1,118.942,94.995,     205P    322
9.5,118.942,94.995,11.1,118.942,94.995,9.5,121.067,94.995,11.1,      205P    323
121.067,94.995,9.5,123.192,94.995,11.1,123.192,97.12,9.5,            205P    324
123.192,97.12,11.1,123.192,-0.470588235294118,0.282352941176471,     205P    325
-3.14159265358979,3.14159265358979;                                  205P    326
128,1,8,1,2,0,1,0,0,1,-0.470588235294118,-0.470588235294118,         207P    327
0.282352941176471,0.282352941176471,-3.14159265358979,               207P    328
-3.14159265358979,-3.14159265358979,-1.5707963267949,                207P    329
-1.5707963267949,0.,0.,1.5707963267949,1.5707963267949,              207P    330
3.14159265358979,3.14159265358979,3.14159265358979,1.,1.,            207P    331
0.707106781186548,0.707106781186548,1.,1.,0.707106781186548,         207P    332
0.707106781186548,1.,1.,0.707106781186548,0.707106781186548,1.,      207P    333
1.,0.707106781186548,0.707106781186548,1.,1.,5.40500000000002,       207P    334
9.5,123.192,5.40500000000002,11.1,123.192,7.53000000000002,9.5,      207P    335
123.192,7.53000000000002,11.1,123.192,7.53000000000002,9.5,          207P    336
121.067,7.53000000000002,11.1,121.067,7.53000000000002,9.5,          207P    337
118.942,7.53000000000002,11.1,118.942,5.40500000000002,9.5,          207P    338
118.942,5.40500000000002,11.1,118.942,3.28000000000001,9.5,          207P    339
118.942,3.28000000000001,11.1,118.942,3.28000000000001,9.5,          207P    340
121.067,3.28000000000001,11.1,121.067,3.28000000000001,9.5,          207P    341
123.192,3.28000000000001,11.1,123.192,5.40500000000002,9.5,          207P    342
123.192,5.40500000000002,11.1,123.192,-0.470588235294118,            207P    343
0.282352941176471,-3.14159265358979,3.14159265358979;                207P    344
128,1,8,1,2,0,1,0,0,1,-4.67976470588235,-4.67976470588235,           209P    345
-3.92682352941176,-3.92682352941176,-3.14159265358979,               209P    346
-3.14159265358979,-3.14159265358979,-1.5707963267949,                209P    347
-1.5707963267949,0.,0.,1.5707963267949,1.5707963267949,              209P    348
3.14159265358979,3.14159265358979,3.14159265358979,1.,1.,            209P    349
0.707106781186548,0.707106781186548,1.,1.,0.707106781186548,         209P    350
0.707106781186548,1.,1.,0.707106781186548,0.707106781186548,1.,      209P    351
1.,0.707106781186548,0.707106781186548,1.,1.,5.40500000000002,       209P    352
11.1,4.9575,5.40500000000002,9.5,4.9575,7.53000000000001,11.1,       209P    353
4.9575,7.53000000000001,9.5,4.9575,7.53000000000002,11.1,7.0825,     209P    354
7.53000000000002,9.5,7.0825,7.53000000000001,11.1,9.2075,            209P    355
7.53000000000001,9.5,9.2075,5.40500000000002,11.1,9.2075,            209P    356
5.40500000000002,9.5,9.2075,3.28000000000002,11.1,9.2075,            209P    357
3.28000000000002,9.5,9.2075,3.28000000000002,11.1,7.0825,            209P    358
3.28000000000002,9.5,7.0825,3.28000000000002,11.1,4.9575,            209P    359
3.28000000000002,9.5,4.9575,5.40500000000002,11.1,4.9575,            209P    360
5.40500000000002,9.5,4.9575,-4.67976470588235,-3.92682352941176,     209P    361
-3.14159265358979,3.14159265358979;                                  209P    362
128,1,8,1,2,0,1,0,0,1,-4.67976470588235,-4.67976470588235,           211P    363
-3.92682352941176,-3.92682352941176,-3.14159265358979,               211P    364
-3.14159265358979,-3.14159265358979,-1.5707963267949,                211P    365
-1.5707963267949,0.,0.,1.5707963267949,1.5707963267949,              211P    366
3.14159265358979,3.14159265358979,3.14159265358979,1.,1.,            211P    367
0.707106781186548,0.707106781186548,1.,1.,0.707106781186548,         211P    368
0.707106781186548,1.,1.,0.707106781186548,0.707106781186548,1.,      211P    369
1.,0.707106781186548,0.707106781186548,1.,1.,97.12,11.1,54.8675,     211P    370
97.12,9.5,54.8675,99.245,11.1,54.8675,99.245,9.5,54.8675,99.245,     211P    371
11.1,56.9925,99.245,9.5,56.9925,99.245,11.1,59.1175,99.245,9.5,      211P    372
59.1175,97.12,11.1,59.1175,97.12,9.5,59.1175,94.995,11.1,            211P    373
59.1175,94.995,9.5,59.1175,94.995,11.1,56.9925,94.995,9.5,           211P    374
56.9925,94.995,11.1,54.8675,94.995,9.5,54.8675,97.12,11.1,           211P    375
54.8675,97.12,9.5,54.8675,-4.67976470588235,-3.92682352941176,       211P    376
-3.14159265358979,3.14159265358979;                                  211P    377
128,1,8,1,2,0,1,0,0,1,-4.67976470588235,-4.67976470588235,           213P    378
-3.92682352941176,-3.92682352941176,-3.14159265358979,               213P    379
-3.14159265358979,-3.14159265358979,-1.5707963267949,                213P    380
-1.5707963267949,0.,0.,1.5707963267949,1.5707963267949,              213P    381
3.14159265358979,3.14159265358979,3.14159265358979,1.,1.,            213P    382
0.707106781186548,0.707106781186548,1.,1.,0.707106781186548,         213P    383
0.707106781186548,1.,1.,0.707106781186548,0.707106781186548,1.,      213P    384
1.,0.707106781186548,0.707106781186548,1.,1.,96.595,11.1,4.9575,     213P    385
96.595,9.5,4.9575,98.72,11.1,4.9575,98.72,9.5,4.9575,98.72,11.1,     213P    386
7.0825,98.72,9.5,7.0825,98.72,11.1,9.2075,98.72,9.5,9.2075,          213P    387
96.595,11.1,9.2075,96.595,9.5,9.2075,94.47,11.1,9.2075,94.47,        213P    388
9.5,9.2075,94.47,11.1,7.0825,94.47,9.5,7.0825,94.47,11.1,4.9575,     213P    389
94.47,9.5,4.9575,96.595,11.1,4.9575,96.595,9.5,4.9575,               213P    390
-4.67976470588235,-3.92682352941176,-3.14159265358979,               213P    391
3.14159265358979;                                                    213P    392
128,1,8,1,2,0,1,0,0,1,-4.67976470588235,-4.67976470588235,           215P    393
-3.92682352941176,-3.92682352941176,-3.14159265358979,               215P    394
-3.14159265358979,-3.14159265358979,-1.5707963267949,                215P    395
-1.5707963267949,0.,0.,1.5707963267949,1.5707963267949,              215P    396
3.14159265358979,3.14159265358979,3.14159265358979,1.,1.,            215P    397
0.707106781186548,0.707106781186548,1.,1.,0.707106781186548,         215P    398
0.707106781186548,1.,1.,0.707106781186548,0.707106781186548,1.,      215P    399
1.,0.707106781186548,0.707106781186548,1.,1.,5.40500000000002,       215P    400
11.1,54.8675,5.40500000000002,9.5,54.8675,7.53000000000002,11.1,     215P    401
54.8675,7.53000000000002,9.5,54.8675,7.53000000000002,11.1,          215P    402
56.9925,7.53000000000002,9.5,56.9925,7.53000000000002,11.1,          215P    403
59.1175,7.53000000000002,9.5,59.1175,5.40500000000002,11.1,          215P    404
59.1175,5.40500000000002,9.5,59.1175,3.28000000000001,11.1,          215P    405
59.1175,3.28000000000001,9.5,59.1175,3.28000000000001,11.1,          215P    406
56.9925,3.28000000000001,9.5,56.9925,3.28000000000001,11.1,          215P    407
54.8675,3.28000000000001,9.5,54.8675,5.40500000000002,11.1,          215P    408
54.8675,5.40500000000002,9.5,54.8675,-4.67976470588235,              215P    409
-3.92682352941176,-3.14159265358979,3.14159265358979;                215P    410
128,1,1,1,1,0,0,1,0,0,-2.877,-2.877,2.877,2.877,-0.136,-0.136,       217P    411
0.0259999999999999,0.0259999999999999,1.,1.,1.,1.,7.77,9.49,         217P    412
60.8075,7.77,9.49,3.26750000000001,7.77,11.11,60.8075,7.77,          217P    413
11.11,3.26750000000001,-2.877,2.877,-0.136,0.0259999999999999;       217P    414
128,1,1,1,1,0,0,1,0,0,-4.324,-4.324,4.299,4.299,-0.136,-0.136,       219P    415
0.0259999999999999,0.0259999999999999,1.,1.,1.,1.,93.99,9.49,        219P    416
60.7975,7.76,9.49,60.7975,93.99,11.11,60.7975,7.76,11.11,            219P    417
60.7975,-4.324,4.299,-0.136,0.0259999999999999;                      219P    418
128,1,1,1,1,0,0,1,0,0,-2.877,-2.877,2.877,2.877,-0.136,-0.136,       221P    419
0.0259999999999999,0.0259999999999999,1.,1.,1.,1.,93.98,9.49,        221P    420
3.2675,93.98,9.49,60.8075,93.98,11.11,3.26750000000001,93.98,        221P    421
11.11,60.8075,-2.877,2.877,-0.136,0.0259999999999999;                221P    422
128,1,1,1,1,0,0,1,0,0,-4.299,-4.299,4.324,4.324,-0.136,-0.136,       223P    423
0.0259999999999999,0.0259999999999999,1.,1.,1.,1.,7.76,9.49,         223P    424
3.2775,93.99,9.49,3.2775,7.76,11.11,3.2775,93.99,11.11,3.2775,       223P    425
-4.299,4.324,-0.136,0.0259999999999999;                              223P    426
502,34,0.25,11.1,0.575,0.25,9.5,0.575,101.75,11.1,0.575,101.75,      225P    427
9.5,0.575,0.25,11.1,127.575,101.75,11.1,127.575,97.12,11.1,          225P    428
123.192,5.40500000000002,11.1,123.192,5.40500000000002,11.1,         225P    429
9.2075,5.40500000000002,11.1,4.9575,97.12,11.1,59.1175,97.12,        225P    430
11.1,54.8675,96.595,11.1,9.2075,96.595,11.1,4.9575,                  225P    431
5.40500000000002,11.1,59.1175,5.40500000000002,11.1,54.8675,         225P    432
7.77,11.1,3.27750000000001,93.98,11.1,3.2775,93.98,11.1,60.7975,     225P    433
7.77,11.1,60.7975,0.25,9.5,127.575,101.75,9.5,127.575,97.12,9.5,     225P    434
118.942,97.12,9.5,123.192,5.40500000000002,9.5,118.942,              225P    435
5.40500000000002,9.5,123.192,5.40500000000002,9.5,4.9575,97.12,      225P    436
9.5,54.8675,96.595,9.5,4.9575,5.40500000000002,9.5,54.8675,          225P    437
93.98,9.5,3.2775,7.77,9.5,3.27750000000001,7.77,9.5,60.7975,         225P    438
93.98,9.5,60.7975;                                                   225P    439
504,48,97,225,1,225,2,99,225,3,225,1,101,225,4,225,3,103,225,2,      227P    440
225,4,105,225,1,225,5,107,225,5,225,6,109,225,6,225,3,111,225,7,     227P    441
225,7,113,225,8,225,8,115,225,9,225,10,117,225,10,225,9,119,225,     227P    442
11,225,12,121,225,12,225,11,123,225,13,225,14,125,225,14,225,13,     227P    443
127,225,15,225,16,129,225,16,225,15,131,225,17,225,18,133,225,       227P    444
18,225,19,135,225,19,225,20,137,225,20,225,17,139,225,21,225,2,      227P    445
141,225,21,225,5,143,225,22,225,21,145,225,6,225,22,147,225,4,       227P    446
225,22,149,225,23,225,24,151,225,24,225,23,153,225,25,225,26,        227P    447
155,225,26,225,25,157,225,27,225,27,159,225,28,225,28,161,225,       227P    448
29,225,29,163,225,30,225,30,165,225,31,225,32,167,225,32,225,33,     227P    449
169,225,33,225,34,171,225,34,225,31,173,225,24,225,7,175,225,26,     227P    450
225,8,177,225,10,225,27,179,225,12,225,28,181,225,14,225,29,183,     227P    451
225,16,225,30,185,225,17,225,32,187,225,33,225,20,189,225,34,        227P    452
225,19,191,225,31,225,18;                                            227P    453
406,1,5HBody2;                                                       229P    454
314,92.9411764705882,80.7843137254902,76.4705882352941,17HCopper     231P    455
 - Polished;                                                         231P    456
314,92.9411764705882,80.7843137254902,76.4705882352941,15HCopper     233P    457
 - Patina;                                                           233P    458
S      1G      2D    234P    458                                        T      1
