                                                                        S      1
,,11HPush Button,11HPush Button,7Hunknown,7Hunknown,32,38,7,99,15,,1.,2,G      1
2HMM,1,0.08,15H20170103.185556,0.01,10000.,7Hunknown,7Hunknown,11,0,;   G      2
     186       1                                                00000000D      1
     186            -167       1       0                               0D      2
     514       2                                                00010000D      3
     514                       2       1                               0D      4
     510       4                                                00010000D      5
     510            -167       1       1                               0D      6
     510       5                                                00010000D      7
     510            -167       1       1                               0D      8
     510       6                                                00010000D      9
     510            -167       1       1                               0D     10
     510       7                                                00010000D     11
     510            -167       1       1                               0D     12
     510       8                                                00010000D     13
     510            -167       1       1                               0D     14
     510       9                                                00010000D     15
     510            -167       1       1                               0D     16
     510      10                                                00010000D     17
     510            -167       1       1                               0D     18
     510      11                                                00010000D     19
     510            -167       1       1                               0D     20
     510      12                                                00010000D     21
     510            -167       1       1                               0D     22
     510      13                                                00010000D     23
     510            -167       1       1                               0D     24
     510      14                                                00010000D     25
     510            -167       1       1                               0D     26
     510      15                                                00010000D     27
     510            -167       1       1                               0D     28
     510      16                                                00010000D     29
     510            -167       1       1                               0D     30
     510      17                                                00010000D     31
     510            -167       1       1                               0D     32
     510      18                                                00010000D     33
     510            -167       1       1                               0D     34
     508      19                                                00010000D     35
     508                       1       1                               0D     36
     508      20                                                00010000D     37
     508                       1       1                               0D     38
     508      21                                                00010000D     39
     508                       1       1                               0D     40
     508      22                                                00010000D     41
     508                       1       1                               0D     42
     508      23                                                00010000D     43
     508                       1       1                               0D     44
     508      24                                                00010000D     45
     508                       1       1                               0D     46
     508      25                                                00010000D     47
     508                       1       1                               0D     48
     508      26                                                00010000D     49
     508                       1       1                               0D     50
     508      27                                                00010000D     51
     508                       1       1                               0D     52
     508      28                                                00010000D     53
     508                       1       1                               0D     54
     508      29                                                00010000D     55
     508                       1       1                               0D     56
     508      30                                                00010000D     57
     508                       1       1                               0D     58
     508      31                                                00010000D     59
     508                       1       1                               0D     60
     508      32                                                00010000D     61
     508                       1       1                               0D     62
     508      33                                                00010000D     63
     508                       1       1                               0D     64
     508      34                                                00010000D     65
     508                       1       1                               0D     66
     126      35                                                00010000D     67
     126       0               3       0                               0D     68
     126      38                                                00010000D     69
     126       0               7       0                               0D     70
     126      45                                                00010000D     71
     126       0               3       0                               0D     72
     126      48                                                00010000D     73
     126       0               7       0                               0D     74
     126      55                                                00010000D     75
     126       0               3       0                               0D     76
     126      58                                                00010000D     77
     126       0               2       0                               0D     78
     126      60                                                00010000D     79
     126       0               2       0                               0D     80
     126      62                                                00010000D     81
     126       0               3       0                               0D     82
     126      65                                                00010000D     83
     126       0               6       0                               0D     84
     126      71                                                00010000D     85
     126       0               6       0                               0D     86
     126      77                                                00010000D     87
     126       0               2       0                               0D     88
     126      79                                                00010000D     89
     126       0               2       0                               0D     90
     126      81                                                00010000D     91
     126       0               2       0                               0D     92
     126      83                                                00010000D     93
     126       0               2       0                               0D     94
     126      85                                                00010000D     95
     126       0               2       0                               0D     96
     126      87                                                00010000D     97
     126       0               2       0                               0D     98
     126      89                                                00010000D     99
     126       0               5       0                               0D    100
     126      94                                                00010000D    101
     126       0               6       0                               0D    102
     126     100                                                00010000D    103
     126       0               2       0                               0D    104
     126     102                                                00010000D    105
     126       0               5       0                               0D    106
     126     107                                                00010000D    107
     126       0               2       0                               0D    108
     126     109                                                00010000D    109
     126       0               2       0                               0D    110
     126     111                                                00010000D    111
     126       0               5       0                               0D    112
     126     116                                                00010000D    113
     126       0               2       0                               0D    114
     126     118                                                00010000D    115
     126       0               2       0                               0D    116
     126     120                                                00010000D    117
     126       0               2       0                               0D    118
     126     122                                                00010000D    119
     126       0               5       0                               0D    120
     126     127                                                00010000D    121
     126       0               2       0                               0D    122
     126     129                                                00010000D    123
     126       0               2       0                               0D    124
     126     131                                                00010000D    125
     126       0               2       0                               0D    126
     126     133                                                00010000D    127
     126       0               6       0                               0D    128
     126     139                                                00010000D    129
     126       0               2       0                               0D    130
     128     141                                                00010000D    131
     128       0    -167      11       0                               0D    132
     128     152                                                00010000D    133
     128       0    -167       6       0                               0D    134
     128     158                                                00010000D    135
     128       0    -167      11       0                               0D    136
     128     169                                                00010000D    137
     128       0    -167       6       0                               0D    138
     128     175                                                00010000D    139
     128       0    -167       3       0                               0D    140
     128     178                                                00010000D    141
     128       0    -167       7       0                               0D    142
     128     185                                                00010000D    143
     128       0    -167       3       0                               0D    144
     128     188                                                00010000D    145
     128       0    -167       3       0                               0D    146
     128     191                                                00010000D    147
     128       0    -167       3       0                               0D    148
     128     194                                                00010000D    149
     128       0    -167      10       0                               0D    150
     128     204                                                00010000D    151
     128       0    -167       3       0                               0D    152
     128     207                                                00010000D    153
     128       0    -167       7       0                               0D    154
     128     214                                                00010000D    155
     128       0    -167       3       0                               0D    156
     128     217                                                00010000D    157
     128       0    -167       3       0                               0D    158
     128     220                                                00010000D    159
     128       0    -167       8       0                               0D    160
     502     228                                                00010000D    161
     502                       5       1                               0D    162
     504     233                                                00010001D    163
     504                       9       1                               0D    164
     406     242                                                00000000D    165
     406                       1      15                               0D    166
     314     243                                                00000200D    167
     314                       2       0                               0D    168
     314     245                                                00000200D    169
     314                       2       0                               0D    170
186,3,1,0,0,1,165;                                                     1P      1
514,15,5,1,7,1,9,1,11,1,13,1,15,1,17,1,19,1,21,1,23,1,25,1,27,1,       3P      2
29,1,31,1,33,1;                                                        3P      3
510,131,1,1,35;                                                        5P      4
510,133,1,1,37;                                                        7P      5
510,135,1,1,39;                                                        9P      6
510,137,1,1,41;                                                       11P      7
510,139,1,1,43;                                                       13P      8
510,141,1,1,45;                                                       15P      9
510,143,1,1,47;                                                       17P     10
510,145,2,1,49,51;                                                    19P     11
510,147,1,1,53;                                                       21P     12
510,149,1,1,55;                                                       23P     13
510,151,1,1,57;                                                       25P     14
510,153,1,1,59;                                                       27P     15
510,155,1,1,61;                                                       29P     16
510,157,1,1,63;                                                       31P     17
510,159,1,1,65;                                                       33P     18
508,4,0,163,1,1,0,0,163,2,1,0,0,163,3,1,0,0,163,4,1,0;                35P     19
508,4,0,163,5,1,0,0,163,6,1,0,0,163,3,0,0,0,163,7,1,0;                37P     20
508,4,0,163,8,1,0,0,163,9,1,0,0,163,5,0,0,0,163,10,1,0;               39P     21
508,4,0,163,1,0,0,0,163,11,1,0,0,163,8,0,0,0,163,12,1,0;              41P     22
508,4,0,163,7,0,0,0,163,13,0,0,0,163,14,0,0,0,163,15,1,0;             43P     23
508,4,0,163,2,0,0,0,163,16,0,0,0,163,17,1,0,0,163,13,1,0;             45P     24
508,4,0,163,4,0,0,0,163,6,0,0,0,163,9,0,0,0,163,11,0,0;               47P     25
508,4,0,163,18,0,0,0,163,19,1,0,0,163,20,0,0,0,163,21,1,0;            49P     26
508,4,0,163,22,1,0,0,163,23,0,0,0,163,14,1,0,0,163,17,0,0;            51P     27
508,4,0,163,19,0,0,0,163,24,1,0,0,163,25,0,0,0,163,26,0,0;            53P     28
508,4,0,163,20,1,0,0,163,26,1,0,0,163,27,0,0,0,163,28,0,0;            55P     29
508,4,0,163,21,0,0,0,163,28,1,0,0,163,29,0,0,0,163,30,0,0;            57P     30
508,4,0,163,18,1,0,0,163,30,1,0,0,163,31,0,0,0,163,24,0,0;            59P     31
508,4,0,163,31,1,0,0,163,29,1,0,0,163,27,1,0,0,163,25,1,0;            61P     32
508,4,0,163,12,0,0,0,163,32,0,0,0,163,22,0,0,0,163,16,1,0;            63P     33
508,4,0,163,10,0,0,0,163,15,0,0,0,163,23,1,0,0,163,32,1,0;            65P     34
126,2,2,0,0,0,0,0.,0.,0.,1.5707963267949,1.5707963267949,             67P     35
1.5707963267949,1.,0.70710678118654,1.,2.29,7.5,0.,2.54,7.5,0.,       67P     36
2.54,7.25,0.,0.,1.5707963267949,0.,0.,0.;                             67P     37
126,4,2,0,0,0,0,-1.5707963267949,-1.5707963267949,                    69P     38
-1.5707963267949,1.11022302462516D-16,1.11022302462516D-16,           69P     39
1.5707963267949,1.5707963267949,1.5707963267949,1.,                   69P     40
0.707106781186548,1.,0.707106781186548,1.,2.54,7.25,0.,2.54,          69P     41
7.25,-2.54,-1.26466504763076D-16,7.25,-2.54,-2.54,7.25,-2.54,         69P     42
-2.54,7.25,2.52933009526152D-16,-1.5707963267949,                     69P     43
1.5707963267949,0.,0.,0.;                                             69P     44
126,2,2,0,0,0,0,0.,0.,0.,1.5707963267949,1.5707963267949,             71P     45
1.5707963267949,1.,0.707106781186541,1.,-2.54,7.25,0.,-2.54,7.5,      71P     46
0.,-2.29,7.5,2.28038028273578D-16,0.,1.5707963267949,0.,0.,0.;        71P     47
126,4,2,0,0,0,0,-1.5707963267949,-1.5707963267949,                    73P     48
-1.5707963267949,-1.11022302462516D-16,-1.11022302462516D-16,         73P     49
1.5707963267949,1.5707963267949,1.5707963267949,1.,                   73P     50
0.707106781186547,1.,0.707106781186548,1.,-2.29,7.5,                  73P     51
2.28038028273578D-16,-2.29,7.5,-2.29,-1.14019014136789D-16,7.5,       73P     52
-2.29,2.29,7.5,-2.29,2.29,7.5,0.,-1.5707963267949,                    73P     53
1.5707963267949,0.,0.,0.;                                             73P     54
126,2,2,0,0,0,0,0.,0.,0.,1.5707963267949,1.5707963267949,             75P     55
1.5707963267949,1.,0.707106781186541,1.,-2.54,7.25,7.62,-2.54,        75P     56
7.5,7.62,-2.29,7.5,7.62,0.,1.5707963267949,0.,0.,0.;                  75P     57
126,1,1,0,0,1,0,-0.5715,-0.5715,0.1905,0.1905,1.,1.,-2.29,7.5,        77P     58
7.62,-2.29,7.5,2.77555756156289D-16,-0.5715,0.1905,0.,0.,0.;          77P     59
126,1,1,0,0,1,0,-0.1905,-0.1905,0.5715,0.5715,1.,1.,-2.54,7.25,       79P     60
0.,-2.54,7.25,7.62,-0.1905,0.5715,0.,0.,0.;                           79P     61
126,2,2,0,0,0,0,0.,0.,0.,1.5707963267949,1.5707963267949,             81P     62
1.5707963267949,1.,0.707106781186541,1.,2.54,7.25,7.62,2.54,7.5,      81P     63
7.62,2.29,7.5,7.62,0.,1.5707963267949,0.,0.,0.;                       81P     64
126,4,2,0,0,0,0,-1.5707963267949,-1.5707963267949,                    83P     65
-1.5707963267949,1.11022302462516D-16,1.11022302462516D-16,           83P     66
1.5707963267949,1.5707963267949,1.5707963267949,1.,                   83P     67
0.707106781186548,1.,0.707106781186547,1.,2.29,7.5,7.62,2.29,         83P     68
7.5,9.91,-1.14019014136789D-16,7.5,9.91,-2.29,7.5,9.91,-2.29,         83P     69
7.5,7.62,-1.5707963267949,1.5707963267949,0.,0.,0.;                   83P     70
126,4,2,0,0,0,0,-1.5707963267949,-1.5707963267949,                    85P     71
-1.5707963267949,-1.11022302462516D-16,-1.11022302462516D-16,         85P     72
1.5707963267949,1.5707963267949,1.5707963267949,1.,                   85P     73
0.707106781186547,1.,0.707106781186548,1.,-2.54,7.25,7.62,-2.54,      85P     74
7.25,10.16,-1.26466504763076D-16,7.25,10.16,2.54,7.25,10.16,          85P     75
2.54,7.25,7.62,-1.5707963267949,1.5707963267949,0.,0.,0.;             85P     76
126,1,1,0,0,1,0,-0.5715,-0.5715,0.1905,0.1905,1.,1.,2.29,7.5,0.,      87P     77
2.29,7.5,7.62,-0.5715,0.1905,0.,0.,0.;                                87P     78
126,1,1,0,0,1,0,-0.1905,-0.1905,0.5715,0.5715,1.,1.,2.54,7.25,        89P     79
7.62,2.54,7.25,0.,-0.1905,0.5715,0.,0.,0.;                            89P     80
126,1,1,0,0,1,0,0.,0.,0.625,0.625,1.,1.,-2.54,1.,0.,-2.54,7.25,       91P     81
0.,0.,0.625,0.,0.,0.;                                                 91P     82
126,1,1,0,0,1,0,0.,0.,0.762,0.762,1.,1.,-2.54,1.,7.62,-2.54,1.,       93P     83
0.,0.,0.762,0.,0.,0.;                                                 93P     84
126,1,1,0,0,1,0,0.,0.,0.625,0.625,1.,1.,-2.54,1.,7.62,-2.54,          95P     85
7.25,7.62,0.,0.625,0.,0.,0.;                                          95P     86
126,1,1,0,0,1,0,0.,0.,0.625,0.625,1.,1.,2.54,1.,0.,2.54,7.25,0.,      97P     87
0.,0.625,0.,0.,0.;                                                    97P     88
126,4,2,0,0,0,0,0.,0.,0.,1.5707963267949,1.5707963267949,             99P     89
3.14159265358979,3.14159265358979,3.14159265358979,1.,                99P     90
0.707106781186548,1.,0.707106781186548,1.,2.54,1.,0.,2.54,1.,         99P     91
-2.54,1.55530143491714D-16,1.,-2.54,-2.54,1.,-2.54,-2.54,1.,          99P     92
-3.11060286983428D-16,0.,3.14159265358979,0.,0.,0.;                   99P     93
126,4,2,0,0,0,0,2.91397119324188D-16,2.91397119324188D-16,           101P     94
2.91397119324188D-16,1.5707963267949,1.5707963267949,                101P     95
3.14159265358979,3.14159265358979,3.14159265358979,1.,               101P     96
0.707106781186548,1.,0.707106781186548,1.,3.81,1.,7.62,3.81,1.,      101P     97
11.43,-6.12694729526799D-16,1.,11.43,-3.81,1.,11.43,-3.81,1.,        101P     98
7.62,2.91397119324188D-16,3.14159265358979,0.,0.,0.;                 101P     99
126,1,1,0,0,1,0,0.,0.,0.762,0.762,1.,1.,3.81,1.,7.62,3.81,1.,0.,     103P    100
0.,0.762,0.,0.,0.;                                                   103P    101
126,4,2,0,0,0,0,-3.14159265358979,-3.14159265358979,                 105P    102
-3.14159265358979,-1.5707963267949,-1.5707963267949,0.,0.,0.,1.,     105P    103
0.707106781186548,1.,0.707106781186548,1.,-3.81,1.,                  105P    104
-4.66590430475142D-16,-3.81,1.,-3.81,2.33295215237571D-16,1.,        105P    105
-3.81,3.81,1.,-3.81,3.81,1.,0.,-3.14159265358979,0.,0.,0.,0.;        105P    106
126,1,1,0,0,1,0,0.,0.,0.762,0.762,1.,1.,-3.81,1.,0.,-3.81,1.,        107P    107
7.62,0.,0.762,0.,0.,0.;                                              107P    108
126,1,1,0,0,1,0,0.,0.,0.762,0.762,1.,1.,2.54,1.,0.,2.54,1.,7.62,     109P    109
0.,0.762,0.,0.,0.;                                                   109P    110
126,4,2,0,0,0,0,-3.14159265358979,-3.14159265358979,                 111P    111
-3.14159265358979,-1.5707963267949,-1.5707963267949,0.,0.,0.,1.,     111P    112
0.707106781186548,1.,0.707106781186548,1.,-2.54,1.,7.62,-2.54,       111P    113
1.,10.16,1.55530143491714D-16,1.,10.16,2.54,1.,10.16,2.54,1.,        111P    114
7.62,-3.14159265358979,0.,0.,0.,0.;                                  111P    115
126,1,1,0,0,1,0,0.,0.,0.1,0.1,1.,1.,3.81,1.,7.62,3.81,0.,7.62,       113P    116
0.,0.1,0.,0.,0.;                                                     113P    117
126,1,1,0,0,1,0,-0.762,-0.762,0.,0.,1.,1.,3.81,0.,0.,3.81,0.,        115P    118
7.62,-0.762,0.,0.,0.,0.;                                             115P    119
126,1,1,0,0,1,0,0.,0.,0.1,0.1,1.,1.,3.81,1.,0.,3.81,0.,0.,0.,        117P    120
0.1,0.,0.,0.;                                                        117P    121
126,4,2,0,0,0,0,-3.14159265358979,-3.14159265358979,                 119P    122
-3.14159265358979,-1.5707963267949,-1.5707963267949,0.,0.,0.,1.,     119P    123
0.707106781186548,1.,0.707106781186548,1.,-3.81,0.,                  119P    124
-4.66590430475142D-16,-3.81,0.,-3.81,2.33295215237571D-16,0.,        119P    125
-3.81,3.81,0.,-3.81,3.81,0.,0.,-3.14159265358979,0.,0.,0.,0.;        119P    126
126,1,1,0,0,1,0,0.,0.,0.1,0.1,1.,1.,-3.81,1.,0.,-3.81,0.,0.,0.,      121P    127
0.1,0.,0.,0.;                                                        121P    128
126,1,1,0,0,1,0,-0.762,-0.762,0.,0.,1.,1.,-3.81,0.,7.62,-3.81,       123P    129
0.,0.,-0.762,0.,0.,0.,0.;                                            123P    130
126,1,1,0,0,1,0,0.,0.,0.1,0.1,1.,1.,-3.81,1.,7.62,-3.81,0.,7.62,     125P    131
0.,0.1,0.,0.,0.;                                                     125P    132
126,4,2,0,0,0,0,2.91397119324188D-16,2.91397119324188D-16,           127P    133
2.91397119324188D-16,1.5707963267949,1.5707963267949,                127P    134
3.14159265358979,3.14159265358979,3.14159265358979,1.,               127P    135
0.707106781186548,1.,0.707106781186548,1.,3.81,0.,7.62,3.81,0.,      127P    136
11.43,-6.12694729526799D-16,0.,11.43,-3.81,0.,11.43,-3.81,0.,        127P    137
7.62,2.91397119324188D-16,3.14159265358979,0.,0.,0.;                 127P    138
126,1,1,0,0,1,0,0.,0.,0.625,0.625,1.,1.,2.54,1.,7.62,2.54,7.25,      129P    139
7.62,0.,0.625,0.,0.,0.;                                              129P    140
128,2,4,2,2,0,0,0,0,0,0.,0.,0.,1.5707963267949,1.5707963267949,      131P    141
1.5707963267949,1.5707963267949,1.5707963267949,1.5707963267949,     131P    142
3.14159265358979,3.14159265358979,4.71238898038469,                  131P    143
4.71238898038469,4.71238898038469,1.,0.707106781186542,1.,           131P    144
0.707106781186548,0.499999999999996,0.707106781186548,1.,            131P    145
0.707106781186542,1.,0.707106781186548,0.499999999999996,            131P    146
0.707106781186548,1.,0.707106781186542,1.,2.29,7.5,0.,2.54,7.5,      131P    147
0.,2.54,7.25,0.,2.29,7.5,-2.29,2.54,7.5,-2.54,2.54,7.25,-2.54,       131P    148
0.,7.5,-2.29,0.,7.5,-2.54,0.,7.25,-2.54,-2.29,7.5,-2.29,-2.54,       131P    149
7.5,-2.54,-2.54,7.25,-2.54,-2.29,7.5,0.,-2.54,7.5,0.,-2.54,7.25,     131P    150
0.,0.,1.5707963267949,1.5707963267949,4.71238898038469;              131P    151
128,1,2,1,2,0,0,0,0,0,-7.62,-7.62,22.86,22.86,                       133P    152
-0.785398163397445,-0.785398163397445,-0.785398163397445,            133P    153
0.785398163397451,0.785398163397451,0.785398163397451,1.,1.,         133P    154
0.707106781186548,0.707106781186548,1.,1.,-2.29,7.5,7.62,-2.29,      133P    155
7.5,0.,-2.54,7.5,7.62,-2.54,7.5,0.,-2.54,7.25,7.62,-2.54,7.25,       133P    156
0.,-7.62,22.86,-0.785398163397445,0.785398163397451;                 133P    157
128,2,4,2,2,0,0,0,0,0,0.,0.,0.,1.5707963267949,1.5707963267949,      135P    158
1.5707963267949,-1.5707963267949,-1.5707963267949,                   135P    159
-1.5707963267949,0.,0.,1.5707963267949,1.5707963267949,              135P    160
1.5707963267949,1.,0.707106781186549,1.,0.707106781186548,           135P    161
0.500000000000001,0.707106781186548,1.,0.707106781186549,1.,         135P    162
0.707106781186548,0.500000000000001,0.707106781186548,1.,            135P    163
0.707106781186549,1.,-2.29,7.5,7.62,-2.54,7.5,7.62,-2.54,7.25,       135P    164
7.62,-2.29,7.5,9.91,-2.54,7.5,10.16,-2.54,7.25,10.16,0.,7.5,         135P    165
9.91,0.,7.5,10.16,0.,7.25,10.16,2.29,7.5,9.91,2.54,7.5,10.16,        135P    166
2.54,7.25,10.16,2.29,7.5,7.62,2.54,7.5,7.62,2.54,7.25,7.62,0.,       135P    167
1.5707963267949,-1.5707963267949,1.5707963267949;                    135P    168
128,1,2,1,2,0,0,0,0,0,-7.62,-7.62,22.86,22.86,                       137P    169
-0.785398163397445,-0.785398163397445,-0.785398163397445,            137P    170
0.785398163397451,0.785398163397451,0.785398163397451,1.,1.,         137P    171
0.707106781186548,0.707106781186548,1.,1.,2.29,7.5,0.,2.29,7.5,      137P    172
7.62,2.54,7.5,0.,2.54,7.5,7.62,2.54,7.25,0.,2.54,7.25,7.62,          137P    173
-7.62,22.86,-0.785398163397445,0.785398163397451;                    137P    174
128,1,1,1,1,0,0,1,0,0,-0.001,-0.001,0.763,0.763,-0.001,-0.001,       139P    175
0.626,0.626,1.,1.,1.,1.,-2.54,0.99,-0.01,-2.54,0.99,7.63,-2.54,      139P    176
7.26,-0.01,-2.54,7.26,7.63,-0.001,0.763,-0.001,0.626;                139P    177
128,1,4,1,2,0,0,0,0,0,0.,0.,2.46062992125984,2.46062992125984,       141P    178
0.,0.,0.,1.5707963267949,1.5707963267949,3.14159265358979,           141P    179
3.14159265358979,3.14159265358979,1.,1.,0.707106781186548,           141P    180
0.707106781186548,1.,1.,0.707106781186548,0.707106781186548,1.,      141P    181
1.,2.54,7.25,0.,2.54,1.,0.,2.54,7.25,-2.54,2.54,1.,-2.54,0.,         141P    182
7.25,-2.54,0.,1.,-2.54,-2.54,7.25,-2.54,-2.54,1.,-2.54,-2.54,        141P    183
7.25,0.,-2.54,1.,0.,0.,2.46062992125984,0.,3.14159265358979;         141P    184
128,1,1,1,1,0,0,1,0,0,-0.23,-0.23,0.23,0.23,-0.611,-0.611,0.611,     143P    185
0.611,1.,1.,1.,1.,-2.3,7.5,9.92,2.3,7.5,9.92,-2.3,7.5,-2.3,2.3,      143P    186
7.5,-2.3,-0.23,0.23,-0.611,0.611;                                    143P    187
128,1,1,1,1,0,0,1,0,0,-0.382,-0.382,0.382,0.382,-0.763,-0.763,       145P    188
0.763,0.763,1.,1.,1.,1.,3.82,1.,-3.82,-3.82,1.,-3.82,3.82,1.,        145P    189
11.44,-3.82,1.,11.44,-0.382,0.382,-0.763,0.763;                      145P    190
128,1,1,1,1,0,0,1,0,0,-0.001,-0.001,0.763,0.763,-0.001,-0.001,       147P    191
0.101,0.101,1.,1.,1.,1.,3.81,1.01,-0.01,3.81,1.01,7.63,3.81,         147P    192
-0.01,-0.01,3.81,-0.01,7.63,-0.001,0.763,-0.001,0.101;               147P    193
128,1,4,1,2,0,0,0,0,0,0.,0.,0.26246719160105,0.26246719160105,       149P    194
-3.14159265358979,-3.14159265358979,-3.14159265358979,               149P    195
-1.5707963267949,-1.5707963267949,0.,0.,0.,1.,1.,                    149P    196
0.707106781186548,0.707106781186548,1.,1.,0.707106781186548,         149P    197
0.707106781186548,1.,1.,-3.81,-1.38777878078145D-16,0.,-3.81,1.,     149P    198
0.,-3.81,-1.38777878078145D-16,-3.81,-3.81,1.,-3.81,0.,              149P    199
-1.38777878078145D-16,-3.81,0.,1.,-3.81,3.81,                        149P    200
-1.38777878078145D-16,-3.81,3.81,1.,-3.81,3.81,                      149P    201
-1.38777878078145D-16,0.,3.81,1.,0.,0.,0.26246719160105,             149P    202
-3.14159265358979,0.;                                                149P    203
128,1,1,1,1,0,0,1,0,0,-0.001,-0.001,0.763,0.763,-0.001,-0.001,       151P    204
0.101,0.101,1.,1.,1.,1.,-3.81,1.01,7.63,-3.81,1.01,-0.01,-3.81,      151P    205
-0.01,7.63,-3.81,-0.01,-0.01,-0.001,0.763,-0.001,0.101;              151P    206
128,1,4,1,2,0,0,0,0,0,0.,0.,0.26246719160105,0.26246719160105,       153P    207
0.,0.,0.,1.5707963267949,1.5707963267949,3.14159265358979,           153P    208
3.14159265358979,3.14159265358979,1.,1.,0.707106781186548,           153P    209
0.707106781186548,1.,1.,0.707106781186548,0.707106781186548,1.,      153P    210
1.,3.81,0.,7.62,3.81,1.,7.62,3.81,0.,11.43,3.81,1.,11.43,0.,0.,      153P    211
11.43,0.,1.,11.43,-3.81,0.,11.43,-3.81,1.,11.43,-3.81,0.,7.62,       153P    212
-3.81,1.,7.62,0.,0.26246719160105,0.,3.14159265358979;               153P    213
128,1,1,1,1,0,0,1,0,0,-0.382,-0.382,0.382,0.382,-0.763,-0.763,       155P    214
0.763,0.763,1.,1.,1.,1.,-3.82,0.,-3.82,3.82,0.,-3.82,-3.82,0.,       155P    215
11.44,3.82,0.,11.44,-0.382,0.382,-0.763,0.763;                       155P    216
128,1,1,1,1,0,0,1,0,0,-0.001,-0.001,0.763,0.763,-0.001,-0.001,       157P    217
0.626,0.626,1.,1.,1.,1.,2.54,0.99,7.63,2.54,0.99,-0.01,2.54,         157P    218
7.26,7.63,2.54,7.26,-0.01,-0.001,0.763,-0.001,0.626;                 157P    219
128,1,4,1,2,0,0,0,0,0,0.,0.,2.46062992125984,2.46062992125984,       159P    220
-3.14159265358979,-3.14159265358979,-3.14159265358979,               159P    221
-1.5707963267949,-1.5707963267949,0.,0.,0.,1.,1.,                    159P    222
0.707106781186548,0.707106781186548,1.,1.,0.707106781186548,         159P    223
0.707106781186548,1.,1.,-2.54,7.25,7.62,-2.54,1.,7.62,-2.54,         159P    224
7.25,10.16,-2.54,1.,10.16,0.,7.25,10.16,0.,1.,10.16,2.54,7.25,       159P    225
10.16,2.54,1.,10.16,2.54,7.25,7.62,2.54,1.,7.62,0.,                  159P    226
2.46062992125984,-3.14159265358979,0.;                               159P    227
502,20,2.29,7.5,0.,2.54,7.25,0.,-2.54,7.25,0.,-2.29,7.5,             161P    228
2.28038028273578D-16,-2.54,7.25,7.62,-2.29,7.5,7.62,2.54,7.25,       161P    229
7.62,2.29,7.5,7.62,-2.54,1.,0.,-2.54,1.,7.62,2.54,1.,0.,3.81,1.,     161P    230
7.62,-3.81,1.,7.62,3.81,1.,0.,-3.81,1.,0.,2.54,1.,7.62,3.81,0.,      161P    231
7.62,3.81,0.,0.,-3.81,0.,0.,-3.81,0.,7.62;                           161P    232
504,32,67,161,1,161,2,69,161,2,161,3,71,161,3,161,4,73,161,4,        163P    233
161,1,75,161,5,161,6,77,161,6,161,4,79,161,3,161,5,81,161,7,161,     163P    234
8,83,161,8,161,6,85,161,5,161,7,87,161,1,161,8,89,161,7,161,2,       163P    235
91,161,9,161,3,93,161,10,161,9,95,161,10,161,5,97,161,11,161,2,      163P    236
99,161,11,161,9,101,161,12,161,13,103,161,12,161,14,105,161,15,      163P    237
161,14,107,161,15,161,13,109,161,11,161,16,111,161,10,161,16,        163P    238
113,161,12,161,17,115,161,18,161,17,117,161,14,161,18,119,161,       163P    239
19,161,18,121,161,15,161,19,123,161,20,161,19,125,161,13,161,20,     163P    240
127,161,17,161,20,129,161,16,161,7;                                  163P    241
406,1,5HBody1;                                                       165P    242
314,96.4705882352941,96.4705882352941,95.2941176470588,24HPlasti     167P    243
c - Glossy (White);                                                  167P    244
314,62.7450980392157,62.7450980392157,62.7450980392157,13HSteel      169P    245
- Satin;                                                             169P    246
S      1G      2D    170P    246                                        T      1
